<?xml version="1.0" encoding="UTF-8" standalone="no"?>
<!DOCTYPE svg PUBLIC "-//W3C//DTD SVG 1.1//EN" "http://www.w3.org/Graphics/SVG/1.1/DTD/svg11.dtd">
<svg version="1.1" xmlns="http://www.w3.org/2000/svg" xmlns:xlink="http://www.w3.org/1999/xlink" preserveAspectRatio="xMidYMid meet" viewBox="295.54672557172563 202.972972972973 96.00000000000006 95.97999999999993" width="92" height="91.98"><defs><path d="M311.88 280.64C328.82 297.59 356.29 297.59 373.24 280.64C390.18 263.7 390.18 236.23 373.23 219.28C356.29 202.34 328.82 202.34 311.88 219.28C294.93 236.23 294.94 263.7 311.88 280.64Z" id="anxKzw3lI"></path><path d="M310.02 282.5C292.06 264.54 292.06 235.39 310.02 217.42C318.7 208.75 330.24 203.97 342.56 203.97C354.88 203.97 366.42 208.75 375.1 217.42C383.77 226.1 388.55 237.64 388.55 249.96C388.55 262.28 383.77 273.83 375.1 282.5C366.42 291.18 354.88 295.95 342.56 295.95C330.24 295.95 318.7 291.18 310.02 282.5ZM313.75 221.15C297.87 237.03 297.87 262.89 313.75 278.86C321.39 286.49 331.62 290.75 342.56 290.75C353.49 290.75 363.73 286.49 371.37 278.77C379 271.05 383.34 260.9 383.34 249.96C383.34 239.03 379.09 228.79 371.37 221.15C363.64 213.52 353.49 209.18 342.56 209.18C331.62 209.18 321.39 213.43 313.75 221.15Z" id="a7NXtK6KzS"></path><path d="M331.54 260.98C330.5 259.94 330.5 258.29 331.54 257.34C333.38 255.5 348.09 240.78 349.93 238.94C350.97 237.9 352.62 237.9 353.58 238.94C354.62 239.98 354.62 241.63 353.58 242.59C351.74 244.43 337.02 259.14 335.18 260.98C334.66 261.5 334.05 261.76 333.36 261.76C332.67 261.76 332.06 261.5 331.54 260.98Z" id="a4vv6fxwH"></path><path d="M349.93 260.98C348.09 259.14 333.38 244.43 331.54 242.59C330.5 241.55 330.5 239.9 331.54 238.94C332.58 237.9 334.23 237.9 335.18 238.94C337.02 240.78 351.74 255.5 353.58 257.34C354.62 258.38 354.62 260.03 353.58 260.98C353.06 261.5 352.45 261.76 351.76 261.76C351.06 261.76 350.45 261.5 349.93 260.98Z" id="h3zxn1jeUZ"></path></defs><g><g><use xlink:href="#anxKzw3lI" opacity="1" fill="#ffffff" fill-opacity="1"></use><g><use xlink:href="#anxKzw3lI" opacity="1" fill-opacity="0" stroke="#000000" stroke-width="1" stroke-opacity="0"></use></g></g><g><use xlink:href="#a7NXtK6KzS" opacity="1" fill="#60a3d9" fill-opacity="1"></use><g><use xlink:href="#a7NXtK6KzS" opacity="1" fill-opacity="0" stroke="#000000" stroke-width="1" stroke-opacity="0"></use></g></g><g><use xlink:href="#a4vv6fxwH" opacity="1" fill="#60a3d9" fill-opacity="1"></use><g><use xlink:href="#a4vv6fxwH" opacity="1" fill-opacity="0" stroke="#000000" stroke-width="1" stroke-opacity="0"></use></g></g><g><use xlink:href="#h3zxn1jeUZ" opacity="1" fill="#60a3d9" fill-opacity="1"></use><g><use xlink:href="#h3zxn1jeUZ" opacity="1" fill-opacity="0" stroke="#000000" stroke-width="1" stroke-opacity="0"></use></g></g></g></svg>