<?xml version="1.0" encoding="UTF-8" standalone="no"?>
<!DOCTYPE svg PUBLIC "-//W3C//DTD SVG 1.1//EN" "http://www.w3.org/Graphics/SVG/1.1/DTD/svg11.dtd">
<svg version="1.1" xmlns="http://www.w3.org/2000/svg" xmlns:xlink="http://www.w3.org/1999/xlink" preserveAspectRatio="xMidYMid meet" viewBox="303.13929313929304 243.21157415924807 104.42619542619559 98.47817047817063" width="95.43" height="90.48"><defs><path d="M388.87 243.21C394.22 243.21 398.57 247.55 398.57 252.91C398.57 269.06 398.57 307.84 398.57 323.99C398.57 329.35 394.22 333.69 388.87 333.69C371.72 333.69 329.98 333.69 312.84 333.69C307.48 333.69 303.14 329.35 303.14 323.99C303.14 307.84 303.14 269.06 303.14 252.91C303.14 247.55 307.48 243.21 312.84 243.21C329.98 243.21 371.72 243.21 388.87 243.21Z" id="b191748TyO"></path><path d="M331.55 289.88C331.79 290.55 332.08 291.28 332.5 292.06C332.65 292.3 332.71 292.55 332.71 292.76C332.71 293.06 332.53 293.36 332.15 293.66C331.96 293.79 330.45 294.81 330.26 294.93C329.99 295.12 329.72 295.21 329.48 295.21C329.18 295.21 328.88 295.05 328.58 294.78C328.16 294.33 327.81 293.84 327.51 293.36C327.21 292.85 326.91 292.27 326.58 291.58C324.24 294.36 321.31 295.75 317.78 295.75C315.26 295.75 313.26 295.02 311.79 293.57C310.32 292.12 309.58 290.19 309.58 287.77C309.58 285.2 310.47 283.11 312.3 281.54C314.13 279.97 316.55 279.18 319.63 279.18C320.65 279.18 321.7 279.27 322.81 279.42C323.91 279.58 325.05 279.82 326.25 280.09C326.25 279.87 326.25 278.1 326.25 277.88C326.25 275.58 325.77 273.98 324.84 273.04C323.88 272.11 322.27 271.65 319.96 271.65C318.91 271.65 317.84 271.77 316.73 272.05C315.62 272.32 314.55 272.65 313.5 273.07C313.02 273.29 312.66 273.41 312.45 273.47C312.24 273.53 312.09 273.56 311.97 273.56C311.55 273.56 311.34 273.26 311.34 272.62C311.34 272.47 311.34 271.29 311.34 271.14C311.34 270.66 311.4 270.29 311.55 270.08C311.7 269.87 311.97 269.66 312.39 269.45C313.44 268.9 314.7 268.45 316.16 268.08C317.63 267.69 319.19 267.51 320.83 267.51C324.4 267.51 327 268.33 328.68 269.96C330.32 271.59 331.16 274.07 331.16 277.4C331.16 278.05 331.16 281.31 331.16 287.19L331.22 287.19C331.3 288.54 331.41 289.44 331.55 289.88ZM322.15 291.24C323.22 290.88 324.18 290.22 324.99 289.31C325.47 288.74 325.83 288.1 326.01 287.37C326.19 286.65 326.31 285.77 326.31 284.74C326.31 284.62 326.31 283.6 326.31 283.47C325.44 283.26 324.51 283.08 323.55 282.96C322.6 282.84 321.67 282.78 320.74 282.78C318.73 282.78 317.27 283.17 316.28 283.99C315.29 284.8 314.81 285.95 314.81 287.46C314.81 288.89 315.17 289.94 315.92 290.67C316.64 291.43 317.69 291.79 319.06 291.79C320.05 291.79 321.07 291.61 322.15 291.24ZM341.96 294.75C341.72 294.57 341.51 294.15 341.33 293.57C340.63 291.24 335 272.54 334.3 270.2C334.12 269.6 334.03 269.21 334.03 268.99C334.03 268.51 334.27 268.24 334.75 268.24C335.04 268.24 337.39 268.24 337.68 268.24C338.25 268.24 338.64 268.33 338.85 268.54C339.09 268.72 339.27 269.14 339.45 269.72C339.78 271.05 341.46 277.73 344.48 289.73C347.28 277.73 348.83 271.05 349.15 269.72C349.3 269.12 349.48 268.72 349.71 268.54C349.95 268.36 350.37 268.24 350.91 268.24C351.15 268.24 353.07 268.24 353.31 268.24C353.87 268.24 354.26 268.33 354.5 268.54C354.74 268.72 354.95 269.14 355.07 269.72C355.39 271.07 356.96 277.82 359.8 289.98C362.91 277.82 364.63 271.07 364.98 269.72C365.16 269.12 365.37 268.72 365.58 268.54C365.82 268.36 366.21 268.24 366.75 268.24C367.02 268.24 369.25 268.24 369.53 268.24C370.01 268.24 370.28 268.48 370.28 268.99C370.28 269.15 370.25 269.3 370.22 269.48C370.19 269.66 370.13 269.9 370.01 270.23C369.29 272.57 363.52 291.27 362.79 293.6C362.61 294.21 362.4 294.6 362.17 294.78C361.93 294.96 361.54 295.08 361.03 295.08C360.77 295.08 358.71 295.08 358.45 295.08C357.89 295.08 357.5 294.99 357.26 294.78C357.02 294.57 356.81 294.18 356.69 293.57C356.38 292.27 354.83 285.77 352.05 274.07C349.28 285.75 347.75 292.24 347.44 293.54C347.29 294.15 347.11 294.54 346.87 294.75C346.63 294.96 346.21 295.05 345.67 295.05C345.5 295.05 344.64 295.05 343.1 295.05C342.5 294.99 342.12 294.89 341.96 294.75ZM376.95 295.33C375.46 294.96 374.29 294.57 373.51 294.12C373.03 293.84 372.7 293.54 372.58 293.27C372.46 293 372.4 292.7 372.4 292.43C372.4 292.27 372.4 291.04 372.4 290.88C372.4 290.25 372.64 289.95 373.09 289.95C373.27 289.95 373.45 289.98 373.63 290.04C373.81 290.1 374.08 290.22 374.38 290.34C375.4 290.79 376.5 291.15 377.67 291.4C378.87 291.64 380.04 291.76 381.23 291.76C383.12 291.76 384.59 291.43 385.6 290.76C386.62 290.09 387.16 289.13 387.16 287.89C387.16 287.04 386.89 286.35 386.35 285.77C385.81 285.2 384.8 284.68 383.33 284.2C382.9 284.06 379.42 282.97 378.99 282.84C376.8 282.14 375.19 281.11 374.2 279.75C373.21 278.42 372.7 276.94 372.7 275.37C372.7 274.1 372.97 272.98 373.51 272.01C374.05 271.05 374.77 270.2 375.67 269.53C376.56 268.84 377.58 268.32 378.78 267.96C379.98 267.6 381.23 267.45 382.55 267.45C383.21 267.45 383.9 267.48 384.56 267.57C385.25 267.66 385.87 267.78 386.5 267.9C387.1 268.05 387.67 268.2 388.21 268.39C388.75 268.57 389.17 268.75 389.47 268.93C389.89 269.17 390.19 269.41 390.37 269.69C390.55 269.93 390.64 270.26 390.64 270.68C390.64 270.83 390.64 271.96 390.64 272.1C390.64 272.74 390.4 273.07 389.95 273.07C389.71 273.07 389.32 272.95 388.81 272.71C387.1 271.92 385.19 271.53 383.06 271.53C381.36 271.53 380.01 271.8 379.08 272.38C378.15 272.95 377.68 273.83 377.68 275.07C377.68 275.91 377.98 276.64 378.57 277.21C379.17 277.79 380.28 278.36 381.87 278.88C382.29 279.01 385.69 280.1 386.12 280.24C388.27 280.93 389.83 281.9 390.76 283.14C391.68 284.38 392.13 285.8 392.13 287.37C392.13 288.67 391.86 289.85 391.35 290.88C390.82 291.91 390.1 292.82 389.17 293.54C388.24 294.3 387.13 294.84 385.85 295.23C384.5 295.66 383.09 295.87 381.56 295.87C380.01 295.87 378.45 295.69 376.95 295.33Z" id="a861cpMYbf"></path><path d="M350.76 321.81C333.52 321.81 317.98 315.37 306.25 304.67C305.32 303.82 306.16 302.67 307.27 303.34C319.96 310.78 335.62 315.28 351.81 315.28C362.73 315.28 374.74 312.98 385.78 308.27C387.43 307.51 388.84 309.35 387.22 310.56C377.37 317.91 363.06 321.81 350.76 321.81ZM379.8 305.45C378.84 305.57 378.69 304.73 379.56 304.09C385.18 300.1 394.43 301.25 395.51 302.58C396.59 303.94 395.21 313.28 389.94 317.76C389.14 318.45 388.36 318.09 388.72 317.18C389.91 314.19 392.58 307.45 391.32 305.85C390.06 304.21 383 305.06 379.8 305.45Z" id="h5ianZTIT"></path></defs><g><g><g><filter id="shadow7033356" x="287.14" y="227.21" width="133.43" height="127.48" filterUnits="userSpaceOnUse" primitiveUnits="userSpaceOnUse"><feFlood></feFlood><feComposite in2="SourceAlpha" operator="in"></feComposite><feGaussianBlur stdDeviation="1.41"></feGaussianBlur><feOffset dx="6" dy="5" result="afterOffset"></feOffset><feFlood flood-color="#000000" flood-opacity="0.5"></feFlood><feComposite in2="afterOffset" operator="in"></feComposite><feMorphology operator="dilate" radius="1"></feMorphology><feComposite in2="SourceAlpha" operator="out"></feComposite></filter><path d="M388.87 243.21C394.22 243.21 398.57 247.55 398.57 252.91C398.57 269.06 398.57 307.84 398.57 323.99C398.57 329.35 394.22 333.69 388.87 333.69C371.72 333.69 329.98 333.69 312.84 333.69C307.48 333.69 303.14 329.35 303.14 323.99C303.14 307.84 303.14 269.06 303.14 252.91C303.14 247.55 307.48 243.21 312.84 243.21C329.98 243.21 371.72 243.21 388.87 243.21Z" id="b15D7APKWB" fill="white" fill-opacity="1" filter="url(#shadow7033356)"></path></g><use xlink:href="#b191748TyO" opacity="1" fill="#232f3e" fill-opacity="1"></use></g><g><use xlink:href="#a861cpMYbf" opacity="1" fill="#ffffff" fill-opacity="1"></use><g><use xlink:href="#a861cpMYbf" opacity="1" fill-opacity="0" stroke="#000000" stroke-width="1" stroke-opacity="0"></use></g></g><g><use xlink:href="#h5ianZTIT" opacity="1" fill="#ff9900" fill-opacity="1"></use><g><use xlink:href="#h5ianZTIT" opacity="1" fill-opacity="0" stroke="#000000" stroke-width="1" stroke-opacity="0"></use></g></g></g></svg>