<?xml version="1.0" encoding="UTF-8" standalone="no"?>
<!DOCTYPE svg PUBLIC "-//W3C//DTD SVG 1.1//EN" "http://www.w3.org/Graphics/SVG/1.1/DTD/svg11.dtd">
<svg version="1.1" xmlns="http://www.w3.org/2000/svg" xmlns:xlink="http://www.w3.org/1999/xlink" preserveAspectRatio="xMidYMid meet" viewBox="161.26602910602918 471.722716014635 104.42619542619565 98.47817047817068" width="95.43" height="90.48"><defs><path d="M247 471.72C252.35 471.72 256.69 476.06 256.69 481.42C256.69 497.58 256.69 536.35 256.69 552.5C256.69 557.86 252.35 562.2 247 562.2C229.85 562.2 188.11 562.2 170.96 562.2C165.61 562.2 161.27 557.86 161.27 552.5C161.27 536.35 161.27 497.58 161.27 481.42C161.27 476.06 165.61 471.72 170.96 471.72C188.11 471.72 229.85 471.72 247 471.72Z" id="bdJN9x9fd"></path><linearGradient id="gradienta1QyCPwmfe" gradientUnits="userSpaceOnUse" x1="163.98" y1="473.85" x2="252.57" y2="562.2"><stop style="stop-color: #a37cde;stop-opacity: 1" offset="0%"></stop><stop style="stop-color: #370090;stop-opacity: 1" offset="100%"></stop></linearGradient><path d="M212.68 477.72C219.04 481.29 238.17 492.03 244.53 495.59C245.81 496.31 246.61 497.65 246.61 499.09C246.61 506.22 246.61 527.7 246.61 534.83C246.61 536.27 245.81 537.61 244.53 538.33C238.17 541.9 219.04 552.63 212.68 556.2C211.4 556.92 209.81 556.92 208.53 556.2C202.17 552.63 183.04 541.9 176.68 538.33C175.4 537.61 174.61 536.28 174.61 534.83C174.61 527.7 174.61 506.23 174.61 499.09C174.61 497.65 175.4 496.32 176.68 495.59C183.04 492.03 202.17 481.29 208.53 477.72C209.81 477 211.4 477 212.68 477.72Z" id="b1czMnufl"></path><path d="M174.61 534.49C174.61 527.4 174.61 506.05 174.61 498.96C174.61 497.52 175.4 496.2 176.68 495.48C183.01 491.94 202.08 481.26 208.41 477.71C209.69 477 211.43 477.01 212.71 477.73C219.05 481.27 238.05 491.86 244.38 495.4C244.89 495.69 245.28 496.04 245.63 496.5C240.94 499.17 217.45 512.57 175.18 536.67C174.8 535.79 174.61 535.07 174.61 534.49Z" id="c17KAmQiEK"></path><path d="M184.08 516.96C184.08 531.6 195.96 543.48 210.61 543.48C225.25 543.48 237.13 531.6 237.13 516.96C237.13 502.32 225.25 490.44 210.61 490.44C195.96 490.44 184.08 502.32 184.08 516.96ZM197.34 516.96C197.34 509.65 203.29 503.7 210.61 503.7C217.92 503.7 223.87 509.65 223.87 516.96C223.87 524.27 217.92 530.22 210.61 530.22C203.29 530.22 197.34 524.27 197.34 516.96Z" id="atnVZLynX"></path><path d="M246.59 499.89C246.59 507.08 246.53 527.53 246.61 534.72C246.61 535.47 246.36 536.26 245.99 536.85C243.58 535.53 231.53 528.9 209.83 516.96L245.63 496.51C246.27 498.04 246.59 499.17 246.59 499.89Z" id="c2EjknRN5L"></path><path d="M229.55 509.38L231.45 509.38L231.45 524.54L229.55 524.54L229.55 509.38ZM235.24 509.38L237.13 509.38L237.13 524.54L235.24 524.54L235.24 509.38Z" id="bGCuKe6o5"></path><path d="M225.76 518.86L240.92 518.86L240.92 520.75L225.76 520.75L225.76 518.86ZM225.76 513.17L240.92 513.17L240.92 515.07L225.76 515.07L225.76 513.17Z" id="b98DABtt7"></path></defs><g><g><g><filter id="shadow761530" x="145.27" y="455.72" width="133.43" height="127.48" filterUnits="userSpaceOnUse" primitiveUnits="userSpaceOnUse"><feFlood></feFlood><feComposite in2="SourceAlpha" operator="in"></feComposite><feGaussianBlur stdDeviation="1.41"></feGaussianBlur><feOffset dx="6" dy="5" result="afterOffset"></feOffset><feFlood flood-color="#000000" flood-opacity="0.5"></feFlood><feComposite in2="afterOffset" operator="in"></feComposite><feMorphology operator="dilate" radius="1"></feMorphology><feComposite in2="SourceAlpha" operator="out"></feComposite></filter><path d="M247 471.72C252.35 471.72 256.69 476.06 256.69 481.42C256.69 497.58 256.69 536.35 256.69 552.5C256.69 557.86 252.35 562.2 247 562.2C229.85 562.2 188.11 562.2 170.96 562.2C165.61 562.2 161.27 557.86 161.27 552.5C161.27 536.35 161.27 497.58 161.27 481.42C161.27 476.06 165.61 471.72 170.96 471.72C188.11 471.72 229.85 471.72 247 471.72Z" id="c220MUYPOM" fill="white" fill-opacity="1" filter="url(#shadow761530)"></path></g><use xlink:href="#bdJN9x9fd" opacity="1" fill="url(#gradienta1QyCPwmfe)"></use></g><g><use xlink:href="#b1czMnufl" opacity="1" fill="#764abb" fill-opacity="1"></use><g><use xlink:href="#b1czMnufl" opacity="1" fill-opacity="0" stroke="#000000" stroke-width="1" stroke-opacity="0"></use></g></g><g><use xlink:href="#c17KAmQiEK" opacity="1" fill="#a37cde" fill-opacity="1"></use><g><use xlink:href="#c17KAmQiEK" opacity="1" fill-opacity="0" stroke="#000000" stroke-width="1" stroke-opacity="0"></use></g></g><g><use xlink:href="#atnVZLynX" opacity="1" fill="#ffffff" fill-opacity="1"></use><g><use xlink:href="#atnVZLynX" opacity="1" fill-opacity="0" stroke="#000000" stroke-width="1" stroke-opacity="0"></use></g></g><g><use xlink:href="#c2EjknRN5L" opacity="1" fill="#a37cde" fill-opacity="1"></use><g><use xlink:href="#c2EjknRN5L" opacity="1" fill-opacity="0" stroke="#000000" stroke-width="1" stroke-opacity="0"></use></g></g><g><use xlink:href="#bGCuKe6o5" opacity="1" fill="#ffffff" fill-opacity="1"></use><g><use xlink:href="#bGCuKe6o5" opacity="1" fill-opacity="0" stroke="#000000" stroke-width="1" stroke-opacity="0"></use></g></g><g><use xlink:href="#b98DABtt7" opacity="1" fill="#ffffff" fill-opacity="1"></use><g><use xlink:href="#b98DABtt7" opacity="1" fill-opacity="0" stroke="#000000" stroke-width="1" stroke-opacity="0"></use></g></g></g></svg>