<?xml version="1.0" encoding="UTF-8" standalone="no"?>
<!DOCTYPE svg PUBLIC "-//W3C//DTD SVG 1.1//EN" "http://www.w3.org/Graphics/SVG/1.1/DTD/svg11.dtd">
<svg version="1.1" xmlns="http://www.w3.org/2000/svg" xmlns:xlink="http://www.w3.org/1999/xlink" preserveAspectRatio="xMidYMid meet" viewBox="303.13929313929304 363.14065217343244 104.42619542619559 98.47817047817068" width="95.43" height="90.48"><defs><path d="M388.87 363.14C394.22 363.14 398.57 367.48 398.57 372.84C398.57 388.99 398.57 427.77 398.57 443.92C398.57 449.28 394.22 453.62 388.87 453.62C371.72 453.62 329.98 453.62 312.84 453.62C307.48 453.62 303.14 449.28 303.14 443.92C303.14 427.77 303.14 388.99 303.14 372.84C303.14 367.48 307.48 363.14 312.84 363.14C329.98 363.14 371.72 363.14 388.87 363.14Z" id="c6QUbCrbpe"></path><path d="M316.85 372.76L322.85 440.76L350.85 448.76L378.85 440.76L384.85 372.76L384.85 372.76L316.85 372.76Z" id="bfpEDiCTt"></path><path d="M350.85 378.76L350.85 442.56L373.25 436.16L378.25 378.76L350.85 378.76Z" id="dlZS7hweY"></path><path d="M369.05 388.76L350.85 388.76L350.85 396.76L360.65 396.76L360.05 404.76L350.85 404.76L350.85 412.76L359.65 412.76L359.05 421.76L350.85 424.56L350.85 432.96L366.65 427.76L368.05 404.76L368.05 404.76L369.05 388.76Z" id="bMybxu0m8"></path><path d="M350.85 396.76L333.05 396.76L332.45 388.76L350.85 388.76L350.85 396.76ZM342.05 412.76L350.85 412.76L350.85 404.76L341.65 404.76L342.05 412.76ZM334.45 416.76L335.05 427.76L350.85 432.96L350.85 424.56L342.65 421.76L342.45 416.76L334.45 416.76Z" id="gV0c2X1Xa"></path></defs><g><g><g><filter id="shadow11201379" x="287.14" y="347.14" width="133.43" height="127.48" filterUnits="userSpaceOnUse" primitiveUnits="userSpaceOnUse"><feFlood></feFlood><feComposite in2="SourceAlpha" operator="in"></feComposite><feGaussianBlur stdDeviation="1.41"></feGaussianBlur><feOffset dx="6" dy="5" result="afterOffset"></feOffset><feFlood flood-color="#000000" flood-opacity="0.5"></feFlood><feComposite in2="afterOffset" operator="in"></feComposite><feMorphology operator="dilate" radius="1"></feMorphology><feComposite in2="SourceAlpha" operator="out"></feComposite></filter><path d="M388.87 363.14C394.22 363.14 398.57 367.48 398.57 372.84C398.57 388.99 398.57 427.77 398.57 443.92C398.57 449.28 394.22 453.62 388.87 453.62C371.72 453.62 329.98 453.62 312.84 453.62C307.48 453.62 303.14 449.28 303.14 443.92C303.14 427.77 303.14 388.99 303.14 372.84C303.14 367.48 307.48 363.14 312.84 363.14C329.98 363.14 371.72 363.14 388.87 363.14Z" id="aiUOZzLwG" fill="white" fill-opacity="1" filter="url(#shadow11201379)"></path></g><use xlink:href="#c6QUbCrbpe" opacity="1" fill="#0096d1" fill-opacity="1"></use></g><g><use xlink:href="#bfpEDiCTt" opacity="1" fill="#0277bd" fill-opacity="1"></use><g><use xlink:href="#bfpEDiCTt" opacity="1" fill-opacity="0" stroke="#000000" stroke-width="1" stroke-opacity="0"></use></g></g><g><use xlink:href="#dlZS7hweY" opacity="1" fill="#039be5" fill-opacity="1"></use><g><use xlink:href="#dlZS7hweY" opacity="1" fill-opacity="0" stroke="#000000" stroke-width="1" stroke-opacity="0"></use></g></g><g><use xlink:href="#bMybxu0m8" opacity="1" fill="#ffffff" fill-opacity="1"></use><g><use xlink:href="#bMybxu0m8" opacity="1" fill-opacity="0" stroke="#000000" stroke-width="1" stroke-opacity="0"></use></g></g><g><use xlink:href="#gV0c2X1Xa" opacity="1" fill="#eeeeee" fill-opacity="1"></use><g><use xlink:href="#gV0c2X1Xa" opacity="1" fill-opacity="0" stroke="#000000" stroke-width="1" stroke-opacity="0"></use></g></g></g></svg>