<?xml version="1.0" encoding="UTF-8" standalone="no"?>
<!DOCTYPE svg PUBLIC "-//W3C//DTD SVG 1.1//EN" "http://www.w3.org/Graphics/SVG/1.1/DTD/svg11.dtd">
<svg version="1.1" xmlns="http://www.w3.org/2000/svg" xmlns:xlink="http://www.w3.org/1999/xlink" preserveAspectRatio="xMidYMid meet" viewBox="161.26602910602918 243.21157415924807 104.42619542619565 98.47817047817063" width="95.43" height="90.48"><defs><path d="M247 243.21C252.35 243.21 256.69 247.55 256.69 252.91C256.69 269.06 256.69 307.84 256.69 323.99C256.69 329.35 252.35 333.69 247 333.69C229.85 333.69 188.11 333.69 170.96 333.69C165.61 333.69 161.27 329.35 161.27 323.99C161.27 307.84 161.27 269.06 161.27 252.91C161.27 247.55 165.61 243.21 170.96 243.21C188.11 243.21 229.85 243.21 247 243.21Z" id="b21WLD175H"></path><path d="M237.61 267.45C229.78 274.54 232.02 281.9 234.61 285.45C234.61 285.45 234.27 287.45 226.61 287.45C218.94 287.45 166.61 287.45 166.61 287.45C166.61 287.45 162.94 319.45 198.61 319.45C229.79 319.45 238.55 295.44 240.26 289.3C240.97 289.39 241.76 289.46 242.61 289.45C246.9 289.42 252.47 287.11 254.61 278.48C248.93 276.52 245.28 277.41 242.61 279.45C243.39 275.98 242.42 271.89 237.61 267.45Z" id="b3aAstPveP"></path><path d="M198.61 319.45C222.98 319.45 233.65 304.79 237.97 295.45C233.23 295.45 209.56 295.45 166.94 295.45C172.03 311.45 182.58 319.45 198.61 319.45Z" id="aLilu3Atx"></path><path d="M190.61 305.45C182.19 309.18 174.73 308.2 171.45 307.47C175.77 313.92 183.79 319.45 198.61 319.45C199.85 319.45 201.05 319.4 202.23 319.33C200.39 318.68 192.09 317.15 190.61 305.45Z" id="b1fwwySm3w"></path><path d="M194.61 303.45C194.61 305.66 196.4 307.45 198.61 307.45C200.81 307.45 202.61 305.66 202.61 303.45C202.61 301.24 200.81 299.45 198.61 299.45C196.4 299.45 194.61 301.24 194.61 303.45Z" id="a3EEl71uvn"></path><path d="M191.41 309.28C184.81 311.23 179.12 311.48 174.82 311.48C173.53 310.25 172.43 308.93 171.51 307.56C176.68 307.56 184.93 307.32 189.8 305.63C190.84 305.26 191.99 305.63 192.43 306.64C192.88 307.65 192.47 308.97 191.41 309.28ZM166.61 293.45C166.61 293.45 170.36 293.7 172.61 291.45C176.36 294.83 184.49 293.63 186.61 291.45C188.73 294.83 200.48 294.2 202.61 291.45C205.11 294.33 215.86 294.95 218.61 291.45C219.56 294.37 232.24 295.2 234.61 291.45C236.73 293.63 244.73 295.33 249.23 291.45C250.36 293.83 254.61 293.45 254.61 293.45C254.61 293.58 254.61 294.25 254.61 295.45L166.61 295.45M198.61 305.45C199.71 305.45 200.61 304.55 200.61 303.45C200.61 302.35 199.71 301.45 198.61 301.45C197.5 301.45 196.61 302.35 196.61 303.45C196.61 304.55 197.5 305.45 198.61 305.45Z" id="a18odODIU5"></path><path d="M174.61 287.45L174.61 277.45L184.61 277.45L184.61 287.45L174.61 287.45ZM194.61 277.45L194.61 287.45L204.61 287.45L204.61 277.45L194.61 277.45ZM214.61 277.45L214.61 287.45L224.61 287.45L224.61 277.45L214.61 277.45ZM184.61 267.45L184.61 277.45L194.61 277.45L194.61 267.45L184.61 267.45ZM204.61 267.45L204.61 277.45L214.61 277.45L214.61 267.45L204.61 267.45Z" id="a9GYyiBpU"></path><path d="M184.61 287.45L184.61 277.45L194.61 277.45L194.61 287.45L184.61 287.45ZM204.61 277.45L204.61 287.45L214.61 287.45L214.61 277.45L204.61 277.45ZM204.61 257.45L204.61 267.45L214.61 267.45L214.61 257.45L204.61 257.45ZM194.61 267.45L194.61 277.45L204.61 277.45L204.61 267.45L194.61 267.45Z" id="bra1TBnD8"></path></defs><g><g><g><filter id="shadow3651944" x="145.27" y="227.21" width="133.43" height="127.48" filterUnits="userSpaceOnUse" primitiveUnits="userSpaceOnUse"><feFlood></feFlood><feComposite in2="SourceAlpha" operator="in"></feComposite><feGaussianBlur stdDeviation="1.41"></feGaussianBlur><feOffset dx="6" dy="5" result="afterOffset"></feOffset><feFlood flood-color="#000000" flood-opacity="0.5"></feFlood><feComposite in2="afterOffset" operator="in"></feComposite><feMorphology operator="dilate" radius="1"></feMorphology><feComposite in2="SourceAlpha" operator="out"></feComposite></filter><path d="M247 243.21C252.35 243.21 256.69 247.55 256.69 252.91C256.69 269.06 256.69 307.84 256.69 323.99C256.69 329.35 252.35 333.69 247 333.69C229.85 333.69 188.11 333.69 170.96 333.69C165.61 333.69 161.27 329.35 161.27 323.99C161.27 307.84 161.27 269.06 161.27 252.91C161.27 247.55 165.61 243.21 170.96 243.21C188.11 243.21 229.85 243.21 247 243.21Z" id="aaYJIhar" fill="white" fill-opacity="1" filter="url(#shadow3651944)"></path></g><use xlink:href="#b21WLD175H" opacity="1" fill="#00ccff" fill-opacity="1"></use></g><g><use xlink:href="#b3aAstPveP" opacity="1" fill="#03a9f4" fill-opacity="1"></use><g><use xlink:href="#b3aAstPveP" opacity="1" fill-opacity="0" stroke="#000000" stroke-width="1" stroke-opacity="0"></use></g></g><g><use xlink:href="#aLilu3Atx" opacity="1" fill="#0288d1" fill-opacity="1"></use><g><use xlink:href="#aLilu3Atx" opacity="1" fill-opacity="0" stroke="#000000" stroke-width="1" stroke-opacity="0"></use></g></g><g><use xlink:href="#b1fwwySm3w" opacity="1" fill="#81d4fa" fill-opacity="1"></use><g><use xlink:href="#b1fwwySm3w" opacity="1" fill-opacity="0" stroke="#000000" stroke-width="1" stroke-opacity="0"></use></g></g><g><use xlink:href="#a3EEl71uvn" opacity="1" fill="#ffffff" fill-opacity="1"></use><g><use xlink:href="#a3EEl71uvn" opacity="1" fill-opacity="0" stroke="#000000" stroke-width="1" stroke-opacity="0"></use></g></g><g><use xlink:href="#a18odODIU5" opacity="1" fill="#37474f" fill-opacity="1"></use><g><use xlink:href="#a18odODIU5" opacity="1" fill-opacity="0" stroke="#000000" stroke-width="1" stroke-opacity="0"></use></g></g><g><use xlink:href="#a9GYyiBpU" opacity="1" fill="#01579b" fill-opacity="1"></use><g><use xlink:href="#a9GYyiBpU" opacity="1" fill-opacity="0" stroke="#000000" stroke-width="1" stroke-opacity="0"></use></g></g><g><use xlink:href="#bra1TBnD8" opacity="1" fill="#0288d1" fill-opacity="1"></use><g><use xlink:href="#bra1TBnD8" opacity="1" fill-opacity="0" stroke="#000000" stroke-width="1" stroke-opacity="0"></use></g></g></g></svg>