<?xml version="1.0" encoding="UTF-8" standalone="no"?>
<!DOCTYPE svg PUBLIC "-//W3C//DTD SVG 1.1//EN" "http://www.w3.org/Graphics/SVG/1.1/DTD/svg11.dtd">
<svg version="1.1" xmlns="http://www.w3.org/2000/svg" xmlns:xlink="http://www.w3.org/1999/xlink" preserveAspectRatio="xMidYMid meet" viewBox="25.16673832588731 363.14065217343244 104.42619542619565 98.47817047817068" width="95.43" height="90.48"><defs><path d="M110.9 363.14C116.25 363.14 120.59 367.48 120.59 372.84C120.59 388.99 120.59 427.77 120.59 443.92C120.59 449.28 116.25 453.62 110.9 453.62C93.75 453.62 52.01 453.62 34.86 453.62C29.51 453.62 25.17 449.28 25.17 443.92C25.17 427.77 25.17 388.99 25.17 372.84C25.17 367.48 29.51 363.14 34.86 363.14C52.01 363.14 93.75 363.14 110.9 363.14Z" id="b282nDXtFy"></path><path d="M76.68 371.35C75.68 370.35 74.28 369.75 72.88 369.75C72.88 369.75 72.88 369.75 72.88 369.75C71.48 369.75 70.08 370.35 69.08 371.35C68.61 371.82 66.28 374.15 62.08 378.35C67 383.27 69.73 386 70.28 386.55C71.08 386.15 71.88 385.95 72.88 385.95C76.28 385.95 78.88 388.55 78.88 391.95C78.88 392.95 78.68 393.75 78.28 394.55C79.08 395.35 85.48 401.75 86.28 402.55C87.08 402.15 87.88 401.95 88.88 401.95C92.28 401.95 94.88 404.55 94.88 407.95C94.88 411.35 92.28 413.95 88.88 413.95C85.48 413.95 82.88 411.35 82.88 407.95C82.88 406.95 83.08 406.15 83.48 405.35C82.68 404.55 76.28 398.15 75.48 397.35C75.28 397.35 75.08 397.55 74.88 397.55C74.88 399.63 74.88 416.27 74.88 418.35C77.28 419.15 78.88 421.35 78.88 423.95C78.88 427.35 76.28 429.95 72.88 429.95C69.48 429.95 66.88 427.35 66.88 423.95C66.88 421.35 68.48 419.15 70.88 418.35C70.88 416.25 70.88 399.45 70.88 397.35C68.48 396.55 66.88 394.35 66.88 391.75C66.88 390.75 67.08 389.95 67.48 389.15C66.93 388.6 64.2 385.87 59.28 380.95C45.6 394.75 38 402.42 36.48 403.95C35.48 404.95 34.88 406.35 34.88 407.75C34.88 409.15 35.48 410.55 36.48 411.55C39.74 414.81 65.82 440.89 69.08 444.15C69.08 444.15 69.08 444.15 69.08 444.15C70.08 445.15 71.48 445.75 72.88 445.75C74.28 445.75 75.68 445.15 76.68 444.15C79.94 440.89 106.02 414.81 109.28 411.55C110.28 410.55 110.88 409.15 110.88 407.75C110.88 406.35 110.28 404.95 109.28 403.95C102.76 397.43 79.94 374.61 76.68 371.35Z" id="c5FlA8VC0"></path></defs><g><g><g><filter id="shadow12301664" x="9.17" y="347.14" width="133.43" height="127.48" filterUnits="userSpaceOnUse" primitiveUnits="userSpaceOnUse"><feFlood></feFlood><feComposite in2="SourceAlpha" operator="in"></feComposite><feGaussianBlur stdDeviation="1.41"></feGaussianBlur><feOffset dx="6" dy="5" result="afterOffset"></feOffset><feFlood flood-color="#000000" flood-opacity="0.5"></feFlood><feComposite in2="afterOffset" operator="in"></feComposite><feMorphology operator="dilate" radius="1"></feMorphology><feComposite in2="SourceAlpha" operator="out"></feComposite></filter><path d="M110.9 363.14C116.25 363.14 120.59 367.48 120.59 372.84C120.59 388.99 120.59 427.77 120.59 443.92C120.59 449.28 116.25 453.62 110.9 453.62C93.75 453.62 52.01 453.62 34.86 453.62C29.51 453.62 25.17 449.28 25.17 443.92C25.17 427.77 25.17 388.99 25.17 372.84C25.17 367.48 29.51 363.14 34.86 363.14C52.01 363.14 93.75 363.14 110.9 363.14Z" id="a2a2pH6mrl" fill="white" fill-opacity="1" filter="url(#shadow12301664)"></path></g><use xlink:href="#b282nDXtFy" opacity="1" fill="#f0efe4" fill-opacity="1"></use></g><g><use xlink:href="#c5FlA8VC0" opacity="1" fill="#f4511e" fill-opacity="1"></use><g><use xlink:href="#c5FlA8VC0" opacity="1" fill-opacity="0" stroke="#000000" stroke-width="1" stroke-opacity="0"></use></g></g></g></svg>