<?xml version="1.0" encoding="UTF-8" standalone="no"?>
<!DOCTYPE svg PUBLIC "-//W3C//DTD SVG 1.1//EN" "http://www.w3.org/Graphics/SVG/1.1/DTD/svg11.dtd">
<svg version="1.1" xmlns="http://www.w3.org/2000/svg" xmlns:xlink="http://www.w3.org/1999/xlink" preserveAspectRatio="xMidYMid meet" viewBox="161.26602910602918 363.14065217343244 104.42619542619565 98.47817047817068" width="95.43" height="90.48"><defs><path d="M247 363.14C252.35 363.14 256.69 367.48 256.69 372.84C256.69 388.99 256.69 427.77 256.69 443.92C256.69 449.28 252.35 453.62 247 453.62C229.85 453.62 188.11 453.62 170.96 453.62C165.61 453.62 161.27 449.28 161.27 443.92C161.27 427.77 161.27 388.99 161.27 372.84C161.27 367.48 165.61 363.14 170.96 363.14C188.11 363.14 229.85 363.14 247 363.14Z" id="dqPdfmIV9"></path><path d="M178.2 426.9L178.2 389.86L209.61 371.3L241.02 389.86L241.02 426.9L209.61 445.46L178.2 426.9ZM209.61 441.3L237.43 424.86L237.43 391.9L209.61 375.46L181.79 391.9L181.79 424.86L209.61 441.3Z" id="c3Yb8lgFEg"></path><path d="M209.61 367.99C206.14 367.99 203.32 370.81 203.32 374.28C203.32 377.75 206.14 380.56 209.61 380.56C213.08 380.56 215.89 377.75 215.89 374.28C215.89 370.81 213.08 367.99 209.61 367.99Z" id="g17cesrVD5"></path><path d="M209.61 436.2C206.14 436.2 203.32 439.01 203.32 442.48C203.32 445.95 206.14 448.76 209.61 448.76C213.08 448.76 215.89 445.95 215.89 442.48C215.89 439.01 213.08 436.2 209.61 436.2Z" id="a4bK8wosvX"></path><path d="M180.89 418.25C177.42 418.25 174.61 421.06 174.61 424.53C174.61 428 177.42 430.82 180.89 430.82C184.36 430.82 187.17 428 187.17 424.53C187.17 421.06 184.36 418.25 180.89 418.25Z" id="ab78iNLSw"></path><path d="M238.32 418.25C234.85 418.25 232.04 421.06 232.04 424.53C232.04 428 234.85 430.82 238.32 430.82C241.79 430.82 244.61 428 244.61 424.53C244.61 421.06 241.79 418.25 238.32 418.25Z" id="a98cn0rK0"></path><path d="M180.89 385.94C177.42 385.94 174.61 388.76 174.61 392.23C174.61 395.7 177.42 398.51 180.89 398.51C184.36 398.51 187.17 395.7 187.17 392.23C187.17 388.76 184.36 385.94 180.89 385.94Z" id="a13NzpybPX"></path><path d="M238.32 385.94C234.85 385.94 232.04 388.76 232.04 392.23C232.04 395.7 234.85 398.51 238.32 398.51C241.79 398.51 244.61 395.7 244.61 392.23C244.61 388.76 241.79 385.94 238.32 385.94Z" id="d1tVZKABUh"></path><path d="M176.9 427.23L209.61 369.75L242.31 427.23L176.9 427.23ZM236.13 423.64L209.61 377.01L183.08 423.64L236.13 423.64Z" id="a7qCsJTXy"></path></defs><g><g><g><filter id="shadow4780185" x="145.27" y="347.14" width="133.43" height="127.48" filterUnits="userSpaceOnUse" primitiveUnits="userSpaceOnUse"><feFlood></feFlood><feComposite in2="SourceAlpha" operator="in"></feComposite><feGaussianBlur stdDeviation="1.41"></feGaussianBlur><feOffset dx="6" dy="5" result="afterOffset"></feOffset><feFlood flood-color="#000000" flood-opacity="0.5"></feFlood><feComposite in2="afterOffset" operator="in"></feComposite><feMorphology operator="dilate" radius="1"></feMorphology><feComposite in2="SourceAlpha" operator="out"></feComposite></filter><path d="M247 363.14C252.35 363.14 256.69 367.48 256.69 372.84C256.69 388.99 256.69 427.77 256.69 443.92C256.69 449.28 252.35 453.62 247 453.62C229.85 453.62 188.11 453.62 170.96 453.62C165.61 453.62 161.27 449.28 161.27 443.92C161.27 427.77 161.27 388.99 161.27 372.84C161.27 367.48 165.61 363.14 170.96 363.14C188.11 363.14 229.85 363.14 247 363.14Z" id="d2hqO8QrB" fill="white" fill-opacity="1" filter="url(#shadow4780185)"></path></g><use xlink:href="#dqPdfmIV9" opacity="1" fill="#181e27" fill-opacity="1"></use></g><g><use xlink:href="#c3Yb8lgFEg" opacity="1" fill="#ff4081" fill-opacity="1"></use><g><use xlink:href="#c3Yb8lgFEg" opacity="1" fill-opacity="0" stroke="#000000" stroke-width="1" stroke-opacity="0"></use></g></g><g><use xlink:href="#g17cesrVD5" opacity="1" fill="#ff4081" fill-opacity="1"></use><g><use xlink:href="#g17cesrVD5" opacity="1" fill-opacity="0" stroke="#000000" stroke-width="1" stroke-opacity="0"></use></g></g><g><use xlink:href="#a4bK8wosvX" opacity="1" fill="#ff4081" fill-opacity="1"></use><g><use xlink:href="#a4bK8wosvX" opacity="1" fill-opacity="0" stroke="#000000" stroke-width="1" stroke-opacity="0"></use></g></g><g><use xlink:href="#ab78iNLSw" opacity="1" fill="#ff4081" fill-opacity="1"></use><g><use xlink:href="#ab78iNLSw" opacity="1" fill-opacity="0" stroke="#000000" stroke-width="1" stroke-opacity="0"></use></g></g><g><use xlink:href="#a98cn0rK0" opacity="1" fill="#ff4081" fill-opacity="1"></use><g><use xlink:href="#a98cn0rK0" opacity="1" fill-opacity="0" stroke="#000000" stroke-width="1" stroke-opacity="0"></use></g></g><g><use xlink:href="#a13NzpybPX" opacity="1" fill="#ff4081" fill-opacity="1"></use><g><use xlink:href="#a13NzpybPX" opacity="1" fill-opacity="0" stroke="#000000" stroke-width="1" stroke-opacity="0"></use></g></g><g><use xlink:href="#d1tVZKABUh" opacity="1" fill="#ff4081" fill-opacity="1"></use><g><use xlink:href="#d1tVZKABUh" opacity="1" fill-opacity="0" stroke="#000000" stroke-width="1" stroke-opacity="0"></use></g></g><g><use xlink:href="#a7qCsJTXy" opacity="1" fill="#ff4081" fill-opacity="1"></use><g><use xlink:href="#a7qCsJTXy" opacity="1" fill-opacity="0" stroke="#000000" stroke-width="1" stroke-opacity="0"></use></g></g></g></svg>