<?xml version="1.0" encoding="UTF-8" standalone="no"?>
<!DOCTYPE svg PUBLIC "-//W3C//DTD SVG 1.1//EN" "http://www.w3.org/Graphics/SVG/1.1/DTD/svg11.dtd">
<svg version="1.1" xmlns="http://www.w3.org/2000/svg" xmlns:xlink="http://www.w3.org/1999/xlink" preserveAspectRatio="xMidYMid meet" viewBox="279.7089397089397 118.64469854469863 104.4261954261957 98.4781704781706" width="95.43" height="90.48"><defs><path d="M365.44 118.64C370.79 118.64 375.14 122.99 375.14 128.34C375.14 144.5 375.14 183.27 375.14 199.43C375.14 204.78 370.79 209.12 365.44 209.12C348.29 209.12 306.55 209.12 289.41 209.12C284.05 209.12 279.71 204.78 279.71 199.43C279.71 183.27 279.71 144.5 279.71 128.34C279.71 122.99 284.05 118.64 289.41 118.64C306.55 118.64 348.29 118.64 365.44 118.64Z" id="h80Ky7QiI"></path><path d="M293.42 128L299.42 196L327.42 204L355.42 196L361.42 128L361.42 128L293.42 128Z" id="c2UninDSgs"></path><path d="M327.07 133.9L327.07 197.7L349.47 191.3L354.47 133.9L327.07 133.9Z" id="a5kGUL0U8"></path><path d="M327.07 159.9L344.27 159.9L342.87 182.9L327.07 188.1L327.07 179.7L335.27 176.9L335.87 167.9L327.07 167.9L327.07 159.9ZM345.47 143.9L327.07 143.9L327.07 151.9L344.87 151.9L345.47 143.9Z" id="a2GD7Y1Rb"></path><path d="M327.07 188.1L311.27 182.9L310.47 171.9L318.47 171.9L318.87 176.9L327.07 179.7L327.07 188.1ZM327.07 151.9L327.07 143.9L308.87 143.9L310.27 167.9L327.07 167.9L327.07 159.9L317.87 159.9L317.27 151.9L327.07 151.9Z" id="dg7uMbPRL"></path></defs><g><g><g><filter id="shadow1492665" x="263.71" y="102.64" width="133.43" height="127.48" filterUnits="userSpaceOnUse" primitiveUnits="userSpaceOnUse"><feFlood></feFlood><feComposite in2="SourceAlpha" operator="in"></feComposite><feGaussianBlur stdDeviation="1.41"></feGaussianBlur><feOffset dx="6" dy="5" result="afterOffset"></feOffset><feFlood flood-color="#000000" flood-opacity="0.5"></feFlood><feComposite in2="afterOffset" operator="in"></feComposite><feMorphology operator="dilate" radius="1"></feMorphology><feComposite in2="SourceAlpha" operator="out"></feComposite></filter><path d="M365.44 118.64C370.79 118.64 375.14 122.99 375.14 128.34C375.14 144.5 375.14 183.27 375.14 199.43C375.14 204.78 370.79 209.12 365.44 209.12C348.29 209.12 306.55 209.12 289.41 209.12C284.05 209.12 279.71 204.78 279.71 199.43C279.71 183.27 279.71 144.5 279.71 128.34C279.71 122.99 284.05 118.64 289.41 118.64C306.55 118.64 348.29 118.64 365.44 118.64Z" id="asUZ8pgFj" fill="white" fill-opacity="1" filter="url(#shadow1492665)"></path></g><use xlink:href="#h80Ky7QiI" opacity="1" fill="#ff6d00" fill-opacity="1"></use></g><g><g><filter id="shadow4400771" x="278.42" y="113" width="103" height="108" filterUnits="userSpaceOnUse" primitiveUnits="userSpaceOnUse"><feFlood></feFlood><feComposite in2="SourceAlpha" operator="in"></feComposite><feGaussianBlur stdDeviation="1"></feGaussianBlur><feOffset dx="5" dy="2" result="afterOffset"></feOffset><feFlood flood-color="#000000" flood-opacity="0.5"></feFlood><feComposite in2="afterOffset" operator="in"></feComposite><feMorphology operator="dilate" radius="3"></feMorphology><feComposite in2="SourceAlpha" operator="out"></feComposite></filter><path d="M293.42 128L299.42 196L327.42 204L355.42 196L361.42 128L361.42 128L293.42 128Z" id="aNk9nhy8j" fill="white" fill-opacity="1" filter="url(#shadow4400771)"></path></g><use xlink:href="#c2UninDSgs" opacity="1" fill="#e65100" fill-opacity="1"></use><g><use xlink:href="#c2UninDSgs" opacity="1" fill-opacity="0" stroke="#000000" stroke-width="1" stroke-opacity="0"></use></g></g><g><use xlink:href="#a5kGUL0U8" opacity="1" fill="#ff6d00" fill-opacity="1"></use><g><use xlink:href="#a5kGUL0U8" opacity="1" fill-opacity="0" stroke="#000000" stroke-width="1" stroke-opacity="0"></use></g></g><g><use xlink:href="#a2GD7Y1Rb" opacity="1" fill="#ffffff" fill-opacity="1"></use><g><use xlink:href="#a2GD7Y1Rb" opacity="1" fill-opacity="0" stroke="#000000" stroke-width="1" stroke-opacity="0"></use></g></g><g><use xlink:href="#dg7uMbPRL" opacity="1" fill="#eeeeee" fill-opacity="1"></use><g><use xlink:href="#dg7uMbPRL" opacity="1" fill-opacity="0" stroke="#000000" stroke-width="1" stroke-opacity="0"></use></g></g></g></svg>