<?xml version="1.0" encoding="UTF-8" standalone="no"?>
<!DOCTYPE svg PUBLIC "-//W3C//DTD SVG 1.1//EN" "http://www.w3.org/Graphics/SVG/1.1/DTD/svg11.dtd">
<svg version="1.1" xmlns="http://www.w3.org/2000/svg" xmlns:xlink="http://www.w3.org/1999/xlink" preserveAspectRatio="xMidYMid meet" viewBox="303.13929313929304 471.722716014635 104.42619542619559 98.47817047817068" width="95.43" height="90.48"><defs><path d="M388.87 471.72C394.22 471.72 398.57 476.06 398.57 481.42C398.57 497.58 398.57 536.35 398.57 552.5C398.57 557.86 394.22 562.2 388.87 562.2C371.72 562.2 329.98 562.2 312.84 562.2C307.48 562.2 303.14 557.86 303.14 552.5C303.14 536.35 303.14 497.58 303.14 481.42C303.14 476.06 307.48 471.72 312.84 471.72C329.98 471.72 371.72 471.72 388.87 471.72Z" id="b41JuryM3U"></path><linearGradient id="gradientacjbHk97p" gradientUnits="userSpaceOnUse" x1="305.85" y1="473.85" x2="394.45" y2="562.2"><stop style="stop-color: #517894;stop-opacity: 1" offset="0%"></stop><stop style="stop-color: #344f61;stop-opacity: 1" offset="100%"></stop></linearGradient><path d="M337.69 501.54C336.08 509.15 348.97 518.08 348.98 518.08C347.03 514.93 345.58 512.28 343.62 507.36C340.3 499.07 363.89 491.58 354.35 477.18C358.47 487.14 339.45 493.24 337.69 501.54ZM349.45 503.13C349.08 508.06 353.83 510.64 353.97 514.23C354.08 517.16 351.05 519.59 351.05 519.59C351.05 519.59 356.44 518.6 358.11 514.13C359.96 509.17 354.55 505.79 355.1 501.82C355.63 498.02 366.86 491 366.86 491C363.38 493.43 350.3 492.07 349.45 503.13ZM365.45 518.37C368.88 517.59 371.85 519.79 371.85 522.31C371.85 527.98 363.94 533.32 363.94 533.32C363.94 533.32 376.18 531.92 376.18 522.6C376.18 518.75 373.8 516.63 370.91 516.49C369.17 516.4 367.2 517.06 365.45 518.37ZM325.55 520.81C325.55 525.49 345.48 525.85 359.71 522.97C359.71 522.97 363.5 520.22 364.51 519.21C355.18 521.19 333.93 521.49 333.93 519.78C333.93 518.2 340.8 516.58 340.8 516.58C340.8 516.58 339.77 516.53 338.35 516.58C334.07 516.73 325.55 517.45 325.55 520.81ZM331.29 528.9C331.29 532.54 348.86 535.34 361.87 530.03C361.42 529.74 357.81 527.49 357.36 527.2C348.54 530.14 332.32 529.17 337.13 525.23C334.79 525.23 331.29 527.09 331.29 528.9ZM334.02 536.98C334.02 541.65 353.08 542.11 360.65 537.36C360.17 537.04 356.33 534.48 355.85 534.16C350.19 536.64 336.02 537.01 339.29 533.41C336.09 533.41 334.02 535.47 334.02 536.98ZM320 541.97C320 552.72 373.45 552.2 373.45 541.21C373.45 539.39 371.37 538.52 370.63 538.11C374.99 548.62 326.96 547.8 326.96 541.59C326.96 540.18 330.47 538.77 333.74 539.43C333.46 539.27 331.2 537.99 330.92 537.83C330.1 537.7 329.3 537.65 328.56 537.64C323.35 537.54 320 539.94 320 541.97ZM329.6 550.8C350.29 559.62 378.91 554.72 379 544.88C370.88 552.89 350.29 555.75 329.6 550.8Z" id="b1ZhdJsrwR"></path></defs><g><g><g><filter id="shadow7015053" x="287.14" y="455.72" width="133.43" height="127.48" filterUnits="userSpaceOnUse" primitiveUnits="userSpaceOnUse"><feFlood></feFlood><feComposite in2="SourceAlpha" operator="in"></feComposite><feGaussianBlur stdDeviation="1.41"></feGaussianBlur><feOffset dx="6" dy="5" result="afterOffset"></feOffset><feFlood flood-color="#000000" flood-opacity="0.5"></feFlood><feComposite in2="afterOffset" operator="in"></feComposite><feMorphology operator="dilate" radius="1"></feMorphology><feComposite in2="SourceAlpha" operator="out"></feComposite></filter><path d="M388.87 471.72C394.22 471.72 398.57 476.06 398.57 481.42C398.57 497.58 398.57 536.35 398.57 552.5C398.57 557.86 394.22 562.2 388.87 562.2C371.72 562.2 329.98 562.2 312.84 562.2C307.48 562.2 303.14 557.86 303.14 552.5C303.14 536.35 303.14 497.58 303.14 481.42C303.14 476.06 307.48 471.72 312.84 471.72C329.98 471.72 371.72 471.72 388.87 471.72Z" id="c4O48pCmzr" fill="white" fill-opacity="1" filter="url(#shadow7015053)"></path></g><use xlink:href="#b41JuryM3U" opacity="1" fill="url(#gradientacjbHk97p)"></use></g><g><use xlink:href="#b1ZhdJsrwR" opacity="1" fill="#ffffff" fill-opacity="1"></use><g><use xlink:href="#b1ZhdJsrwR" opacity="1" fill-opacity="0" stroke="#000000" stroke-width="1" stroke-opacity="0"></use></g></g></g></svg>