<?xml version="1.0" encoding="UTF-8" standalone="no"?>
<!DOCTYPE svg PUBLIC "-//W3C//DTD SVG 1.1//EN" "http://www.w3.org/Graphics/SVG/1.1/DTD/svg11.dtd">
<svg version="1.1" xmlns="http://www.w3.org/2000/svg" xmlns:xlink="http://www.w3.org/1999/xlink" preserveAspectRatio="xMidYMid meet" viewBox="303.13929313929304 8.374428274428254 104.42619542619565 98.4781704781706" width="95.43" height="90.48"><defs><path d="M388.87 8.37C394.22 8.37 398.57 12.72 398.57 18.07C398.57 34.23 398.57 73 398.57 89.16C398.57 94.51 394.22 98.85 388.87 98.85C371.72 98.85 329.98 98.85 312.84 98.85C307.48 98.85 303.14 94.51 303.14 89.16C303.14 73 303.14 34.23 303.14 18.07C303.14 12.72 307.48 8.37 312.84 8.37C329.98 8.37 371.72 8.37 388.87 8.37Z" id="f3QK8eY0Hb"></path><path d="M338.11 43.71C332.59 46.77 329.52 48.47 328.91 48.81C328.56 48.99 328.35 49.35 328.35 49.73C328.35 50.75 328.35 58.9 328.35 59.91C328.35 60.29 328.56 60.64 328.91 60.84C329.83 61.35 337.19 65.42 338.11 65.93C338.45 66.12 338.88 66.12 339.22 65.93C340.14 65.42 347.5 61.35 348.42 60.84C348.77 60.64 348.98 60.29 348.98 59.91C348.98 58.9 348.98 50.75 348.98 49.73C348.98 49.35 348.77 49 348.42 48.81C347.5 48.3 340.14 44.22 339.22 43.71C339.05 43.62 338.86 43.57 338.66 43.57C338.47 43.57 338.28 43.62 338.11 43.71M385.45 52.88C384.53 53.39 384.02 53.68 383.91 53.73C383.86 53.76 383.82 53.82 383.82 53.89C383.82 54.06 383.82 55.41 383.82 55.58C383.82 55.65 383.86 55.71 383.91 55.74C384.07 55.82 385.29 56.5 385.45 56.59C385.51 56.62 385.58 56.62 385.63 56.59C385.79 56.5 387.01 55.82 387.17 55.74C387.22 55.71 387.26 55.65 387.26 55.58C387.26 55.41 387.26 54.06 387.26 53.89C387.26 53.82 387.22 53.76 387.17 53.73C387.01 53.65 385.79 52.97 385.63 52.88C385.6 52.87 385.57 52.86 385.54 52.86C385.51 52.86 385.48 52.87 385.45 52.88" id="c1j4xm1KtE"></path><path d="M368.41 30.42C368.27 30.34 368.09 30.34 367.95 30.43C367.82 30.51 367.73 30.66 367.73 30.82C367.73 31.82 367.73 36.86 367.73 45.91C365.25 44.54 363.87 43.78 363.6 43.63C363.42 43.53 363.23 43.49 363.04 43.49C362.85 43.49 362.66 43.53 362.48 43.63C362.48 43.63 362.48 43.63 362.48 43.63C356.96 46.68 353.9 48.38 353.28 48.72C352.94 48.91 352.73 49.26 352.73 49.64C352.73 50.66 352.73 58.81 352.73 59.83C352.73 60.21 352.94 60.56 353.28 60.75C354.2 61.26 361.57 65.33 362.49 65.84C362.83 66.03 363.26 66.03 363.6 65.84C364.52 65.33 371.88 61.26 372.8 60.75C373.14 60.56 373.35 60.21 373.35 59.83C373.35 57.21 373.35 36.33 373.35 33.71C373.35 33.38 373.17 33.08 372.89 32.92C371.99 32.42 368.85 30.67 368.41 30.42ZM363.29 59.78C363.14 59.87 362.95 59.87 362.79 59.78C362.37 59.55 359.03 57.7 358.61 57.47C358.45 57.38 358.35 57.22 358.35 57.05C358.35 56.59 358.35 52.88 358.35 52.42C358.35 52.25 358.45 52.09 358.61 52C358.88 51.84 360.28 51.07 362.79 49.68C362.79 49.68 362.79 49.68 362.79 49.68C362.87 49.64 362.95 49.62 363.04 49.62C363.13 49.62 363.21 49.64 363.29 49.68C363.71 49.92 367.06 51.77 367.47 52C367.63 52.09 367.73 52.25 367.73 52.42C367.73 52.88 367.73 56.59 367.73 57.05C367.73 57.22 367.63 57.38 367.48 57.47C366.64 57.93 363.71 59.55 363.29 59.78Z" id="a6iVq19r67"></path><path d="M338.11 43.71C332.26 53.43 329 58.83 328.35 59.91C328.35 60.29 328.56 60.64 328.91 60.84C329.83 61.35 337.19 65.42 338.11 65.93C338.45 66.12 338.88 66.12 339.22 65.93C340.2 64.31 348 51.35 348.98 49.73C348.98 49.35 348.77 49 348.42 48.81C347.5 48.3 340.14 44.22 339.22 43.71C339.05 43.62 338.86 43.57 338.66 43.57C338.47 43.57 338.28 43.62 338.11 43.71" id="a3h8sQhHcV"></path><path d="M338.11 43.71C332.59 46.77 329.52 48.47 328.91 48.81C328.56 48.99 328.35 49.35 328.35 49.73C329.33 51.35 337.13 64.31 338.11 65.93C338.45 66.12 338.88 66.12 339.22 65.93C340.14 65.42 347.5 61.35 348.42 60.84C348.77 60.64 348.98 60.29 348.98 59.91C348 58.29 340.2 45.33 339.22 43.71C339.05 43.62 338.86 43.57 338.66 43.57C338.47 43.57 338.28 43.62 338.11 43.71" id="b24OZJn1lQ"></path><path d="M386.1 43.71C385.92 43.62 385.73 43.57 385.54 43.57C385.35 43.57 385.16 43.62 384.98 43.71C384.98 43.71 384.98 43.71 384.98 43.71C379.46 46.77 376.4 48.46 375.78 48.8C375.44 48.99 375.23 49.35 375.23 49.75C375.23 50.76 375.23 58.88 375.23 59.89C375.23 60.28 375.44 60.65 375.78 60.83C376.7 61.34 384.07 65.42 384.99 65.93C385.33 66.12 385.75 66.12 386.1 65.93C386.52 65.69 389.92 63.81 390.34 63.58C390.73 63.36 390.73 62.81 390.34 62.59C389.41 62.09 382.03 58.06 381.11 57.56C380.95 57.47 380.85 57.3 380.85 57.13C380.85 56.67 380.85 52.97 380.85 52.5C380.85 52.33 380.95 52.17 381.1 52.09C381.38 51.94 382.77 51.16 385.29 49.77C385.29 49.77 385.29 49.77 385.28 49.77C385.36 49.73 385.45 49.71 385.54 49.71C385.63 49.71 385.71 49.73 385.79 49.77C386.21 50 389.56 51.86 389.98 52.09C390.13 52.17 390.23 52.33 390.23 52.51C390.23 52.88 390.23 55.9 390.23 56.28C390.23 56.44 390.31 56.59 390.45 56.67C390.59 56.75 390.77 56.75 390.91 56.67C391.36 56.41 394.95 54.32 395.4 54.06C395.68 53.9 395.85 53.6 395.85 53.28C395.85 52.92 395.85 50.1 395.85 49.75C395.85 49.35 395.64 48.99 395.3 48.8C393.46 47.79 387.02 44.22 386.1 43.71ZM316.72 43.71C316.55 43.62 316.36 43.57 316.16 43.57C315.97 43.57 315.78 43.62 315.61 43.71C315.61 43.71 315.61 43.71 315.61 43.71C310.09 46.77 307.02 48.46 306.41 48.8C306.07 48.99 305.85 49.35 305.85 49.75C305.85 51.15 305.85 62.34 305.85 63.74C305.85 63.9 305.94 64.05 306.08 64.13C306.22 64.21 306.39 64.21 306.53 64.13C306.98 63.87 310.58 61.78 311.03 61.52C311.31 61.36 311.48 61.06 311.48 60.74C311.48 59.92 311.48 53.33 311.48 52.5C311.48 52.33 311.57 52.17 311.72 52.09C312 51.93 313.4 51.16 315.91 49.77C315.91 49.77 315.91 49.77 315.91 49.77C315.99 49.73 316.08 49.71 316.16 49.71C316.25 49.71 316.34 49.73 316.42 49.77C316.84 50 320.19 51.86 320.61 52.09C320.76 52.17 320.85 52.33 320.85 52.5C320.85 53.33 320.85 59.92 320.85 60.74C320.85 61.06 321.02 61.36 321.3 61.52C321.75 61.78 325.35 63.87 325.8 64.13C325.94 64.22 326.11 64.22 326.25 64.14C326.39 64.05 326.48 63.9 326.48 63.74C326.48 62.34 326.48 51.15 326.48 49.75C326.48 49.35 326.26 48.99 325.92 48.8C324.08 47.79 317.64 44.22 316.72 43.71Z" id="aWEUEwW6"></path></defs><g><g><g><filter id="shadow5406776" x="287.14" y="-7.63" width="133.43" height="127.48" filterUnits="userSpaceOnUse" primitiveUnits="userSpaceOnUse"><feFlood></feFlood><feComposite in2="SourceAlpha" operator="in"></feComposite><feGaussianBlur stdDeviation="1.41"></feGaussianBlur><feOffset dx="6" dy="5" result="afterOffset"></feOffset><feFlood flood-color="#000000" flood-opacity="0.5"></feFlood><feComposite in2="afterOffset" operator="in"></feComposite><feMorphology operator="dilate" radius="1"></feMorphology><feComposite in2="SourceAlpha" operator="out"></feComposite></filter><path d="M388.87 8.37C394.22 8.37 398.57 12.72 398.57 18.07C398.57 34.23 398.57 73 398.57 89.16C398.57 94.51 394.22 98.85 388.87 98.85C371.72 98.85 329.98 98.85 312.84 98.85C307.48 98.85 303.14 94.51 303.14 89.16C303.14 73 303.14 34.23 303.14 18.07C303.14 12.72 307.48 8.37 312.84 8.37C329.98 8.37 371.72 8.37 388.87 8.37Z" id="d3peN3Q2xS" fill="white" fill-opacity="1" filter="url(#shadow5406776)"></path></g><use xlink:href="#f3QK8eY0Hb" opacity="1" fill="#313131" fill-opacity="1"></use></g><g><use xlink:href="#c1j4xm1KtE" opacity="1" fill="#33930d" fill-opacity="1"></use><g><use xlink:href="#c1j4xm1KtE" opacity="1" fill-opacity="0" stroke="#000000" stroke-width="1" stroke-opacity="0"></use></g></g><g><use xlink:href="#a6iVq19r67" opacity="1" fill="#ffffff" fill-opacity="1"></use><g><use xlink:href="#a6iVq19r67" opacity="1" fill-opacity="0" stroke="#000000" stroke-width="1" stroke-opacity="0"></use></g></g><g><use xlink:href="#a3h8sQhHcV" opacity="1" fill="#47894a" fill-opacity="1"></use><g><use xlink:href="#a3h8sQhHcV" opacity="1" fill-opacity="0" stroke="#000000" stroke-width="1" stroke-opacity="0"></use></g></g><g><use xlink:href="#b24OZJn1lQ" opacity="1" fill="#4caf50" fill-opacity="1"></use><g><use xlink:href="#b24OZJn1lQ" opacity="1" fill-opacity="0" stroke="#000000" stroke-width="1" stroke-opacity="0"></use></g></g><g><use xlink:href="#aWEUEwW6" opacity="1" fill="#ffffff" fill-opacity="1"></use><g><use xlink:href="#aWEUEwW6" opacity="1" fill-opacity="0" stroke="#000000" stroke-width="1" stroke-opacity="0"></use></g></g></g></svg>