<?xml version="1.0" encoding="UTF-8" standalone="no"?>
<!DOCTYPE svg PUBLIC "-//W3C//DTD SVG 1.1//EN" "http://www.w3.org/Graphics/SVG/1.1/DTD/svg11.dtd">
<svg version="1.1" xmlns="http://www.w3.org/2000/svg" xmlns:xlink="http://www.w3.org/1999/xlink" preserveAspectRatio="xMidYMid meet" viewBox="161.26602910602918 129.9544698544699 104.42619542619565 98.47817047817065" width="95.43" height="90.48"><defs><path d="M247 129.95C252.35 129.95 256.69 134.3 256.69 139.65C256.69 155.81 256.69 194.58 256.69 210.74C256.69 216.09 252.35 220.43 247 220.43C229.85 220.43 188.11 220.43 170.96 220.43C165.61 220.43 161.27 216.09 161.27 210.74C161.27 194.58 161.27 155.81 161.27 139.65C161.27 134.3 165.61 129.95 170.96 129.95C188.11 129.95 229.85 129.95 247 129.95Z" id="f3TbgqaA2L"></path><path d="M165.39 175.25C165.39 189.36 184.9 200.8 208.98 200.8C233.06 200.8 252.57 189.36 252.57 175.25C252.57 161.13 233.06 149.69 208.98 149.69C184.9 149.69 165.39 161.13 165.39 175.25Z" id="i7AuaouLgJ"></path><path d="M165.39 175.25C165.39 189.36 184.9 200.8 208.98 200.8C233.06 200.8 252.57 189.36 252.57 175.25C252.57 161.14 233.06 149.69 208.98 149.69C184.9 149.69 165.39 161.14 165.39 175.25ZM172.42 175.25C172.42 166.49 187.43 156.72 208.98 156.72C230.53 156.72 245.54 166.49 245.54 175.25C245.54 184.01 230.53 193.77 208.98 193.77C187.43 193.77 172.42 184.01 172.42 175.25Z" id="b11s12dUhz"></path><path d="M219.81 188.03L224.82 188.03L225.82 182.34C227.7 182.34 228.74 182.34 228.94 182.34C235.48 182.34 239.03 180.83 240.36 175.22C241.5 170.41 238.58 167.18 233.76 167.18C233.09 167.18 229.72 167.18 223.65 167.18L219.81 188.03ZM226.53 178.55L227.96 170.97C230.31 170.97 231.61 170.97 231.87 170.97C235.11 170.97 235.79 172.43 235.62 174.05C235.18 178.23 232.58 178.55 229.77 178.55C229.34 178.55 228.26 178.55 226.53 178.55ZM180.01 188.03L185.02 188.03L186.02 182.34C187.89 182.34 188.93 182.34 189.14 182.34C195.67 182.34 199.23 180.83 200.55 175.22C201.7 170.41 198.78 167.18 193.96 167.18C193.29 167.18 189.92 167.18 183.85 167.18L180.01 188.03ZM186.73 178.55L188.16 170.97C190.5 170.97 191.8 170.97 192.06 170.97C195.3 170.97 195.98 172.43 195.81 174.05C195.38 178.23 192.77 178.55 189.97 178.55C189.54 178.55 188.46 178.55 186.73 178.55ZM213.49 167.18C213.19 167.18 211.71 167.18 209.05 167.18L210.63 159.6L205.66 159.6L200.91 182.34L205.88 182.34L208.28 170.97C210.67 170.97 211.99 170.97 212.26 170.97C213.53 170.97 214.37 171.18 214.76 171.6C215.14 172.02 215.23 172.82 215 173.97C214.88 174.53 214.28 177.32 213.19 182.34L218.24 182.34C219.42 176.91 220.08 173.89 220.21 173.29C220.63 171.11 220.31 169.52 219.26 168.56C218.19 167.58 216.3 167.18 213.49 167.18Z" id="alXexgMoX"></path><path d="M163.98 175.25C163.98 160.38 184.17 148.29 208.98 148.29C233.79 148.29 253.98 160.38 253.98 175.25C253.98 190.12 233.79 202.21 208.98 202.21C184.17 202.21 163.98 190.12 163.98 175.25ZM166.79 175.25C166.79 188.57 185.72 199.4 208.98 199.4C232.24 199.4 251.17 188.57 251.17 175.25C251.17 161.93 232.24 151.1 208.98 151.1C185.72 151.1 166.79 161.93 166.79 175.25ZM245.33 200.6C245.18 200.37 243.97 198.47 243.82 198.23C243.4 197.57 243.59 196.71 244.25 196.29C244.9 195.87 245.77 196.06 246.19 196.72C246.34 196.96 247.55 198.85 247.7 199.09C248.12 199.75 247.93 200.62 247.27 201.03C247.04 201.18 246.77 201.25 246.52 201.25C246.05 201.25 245.6 201.02 245.33 200.6ZM239.27 203.73C239.15 203.48 238.19 201.44 238.07 201.19C237.74 200.49 238.04 199.65 238.74 199.32C239.45 198.99 240.28 199.29 240.61 199.99C240.73 200.25 241.69 202.28 241.82 202.53C242.15 203.24 241.84 204.08 241.14 204.41C240.95 204.5 240.74 204.54 240.54 204.54C240.02 204.54 239.51 204.24 239.27 203.73ZM232.92 206.14C232.83 205.88 232.09 203.75 232 203.48C231.74 202.75 232.14 201.95 232.87 201.7C233.6 201.44 234.4 201.83 234.66 202.56C234.75 202.83 235.48 204.96 235.58 205.22C235.83 205.96 235.44 206.76 234.71 207.01C234.56 207.07 234.4 207.09 234.25 207.09C233.67 207.09 233.12 206.72 232.92 206.14ZM226.38 207.92C226.31 207.64 225.78 205.46 225.72 205.18C225.53 204.43 226 203.67 226.75 203.49C227.5 203.3 228.27 203.77 228.45 204.52C228.52 204.8 229.04 206.98 229.11 207.26C229.29 208.01 228.83 208.77 228.07 208.95C227.96 208.98 227.85 208.99 227.74 208.99C227.11 208.99 226.53 208.56 226.38 207.92ZM219.71 209.09C219.67 208.81 219.34 206.59 219.3 206.31C219.18 205.54 219.71 204.82 220.48 204.71C221.26 204.6 221.97 205.12 222.08 205.89C222.12 206.17 222.45 208.4 222.5 208.68C222.61 209.44 222.08 210.16 221.31 210.27C221.24 210.28 221.17 210.29 221.1 210.29C220.42 210.29 219.82 209.79 219.71 209.09ZM212.98 209.68C212.96 209.4 212.82 207.15 212.8 206.87C212.75 206.1 213.34 205.43 214.11 205.38C214.88 205.34 215.55 205.92 215.61 206.69C215.62 206.97 215.77 209.22 215.79 209.5C215.84 210.27 215.25 210.94 214.47 210.99C214.44 211 214.41 211 214.38 211C213.65 211 213.03 210.43 212.98 209.68Z" id="bzYnvkMFO"></path><path d="M193.36 158.7C193.17 157.94 193.63 157.18 194.38 156.99C196.28 156.52 198.27 156.12 200.32 155.8C201.09 155.68 201.81 156.21 201.93 156.98C202.05 157.74 201.52 158.46 200.76 158.58C198.79 158.89 196.87 159.27 195.06 159.72C194.95 159.75 194.84 159.76 194.72 159.76C194.09 159.76 193.52 159.34 193.36 158.7Z" id="asDYVDg3"></path><path d="M173.15 172.01C172.47 171.64 172.22 170.79 172.59 170.11C172.74 169.83 176.48 163.19 188.65 158.73C189.38 158.47 190.19 158.84 190.46 159.57C190.72 160.3 190.35 161.11 189.62 161.38C178.53 165.43 175.09 171.41 175.05 171.46C174.8 171.93 174.32 172.19 173.82 172.19C173.59 172.19 173.36 172.13 173.15 172.01Z" id="a27BZhj2sl"></path></defs><g><g><g><filter id="shadow2777213" x="145.27" y="113.95" width="133.43" height="127.48" filterUnits="userSpaceOnUse" primitiveUnits="userSpaceOnUse"><feFlood></feFlood><feComposite in2="SourceAlpha" operator="in"></feComposite><feGaussianBlur stdDeviation="1.41"></feGaussianBlur><feOffset dx="6" dy="5" result="afterOffset"></feOffset><feFlood flood-color="#000000" flood-opacity="0.5"></feFlood><feComposite in2="afterOffset" operator="in"></feComposite><feMorphology operator="dilate" radius="1"></feMorphology><feComposite in2="SourceAlpha" operator="out"></feComposite></filter><path d="M247 129.95C252.35 129.95 256.69 134.3 256.69 139.65C256.69 155.81 256.69 194.58 256.69 210.74C256.69 216.09 252.35 220.43 247 220.43C229.85 220.43 188.11 220.43 170.96 220.43C165.61 220.43 161.27 216.09 161.27 210.74C161.27 194.58 161.27 155.81 161.27 139.65C161.27 134.3 165.61 129.95 170.96 129.95C188.11 129.95 229.85 129.95 247 129.95Z" id="c1dywStKM5" fill="white" fill-opacity="1" filter="url(#shadow2777213)"></path></g><use xlink:href="#f3TbgqaA2L" opacity="1" fill="#5b66a4" fill-opacity="1"></use></g><g><use xlink:href="#i7AuaouLgJ" opacity="1" fill="#b5c4e0" fill-opacity="1"></use><g><use xlink:href="#i7AuaouLgJ" opacity="1" fill-opacity="0" stroke="#000000" stroke-width="1" stroke-opacity="0"></use></g></g><g><use xlink:href="#b11s12dUhz" opacity="1" fill="#ced9ed" fill-opacity="1"></use><g><use xlink:href="#b11s12dUhz" opacity="1" fill-opacity="0" stroke="#000000" stroke-width="1" stroke-opacity="0"></use></g></g><g><use xlink:href="#alXexgMoX" opacity="1" fill="#8d6c9e" fill-opacity="1"></use><g><use xlink:href="#alXexgMoX" opacity="1" fill-opacity="0" stroke="#000000" stroke-width="1" stroke-opacity="0"></use></g></g><g><use xlink:href="#bzYnvkMFO" opacity="1" fill="#8d6c9f" fill-opacity="1"></use><g><use xlink:href="#bzYnvkMFO" opacity="1" fill-opacity="0" stroke="#000000" stroke-width="1" stroke-opacity="0"></use></g></g><g><use xlink:href="#asDYVDg3" opacity="1" fill="#8d6c9f" fill-opacity="1"></use><g><use xlink:href="#asDYVDg3" opacity="1" fill-opacity="0" stroke="#000000" stroke-width="1" stroke-opacity="0"></use></g></g><g><use xlink:href="#a27BZhj2sl" opacity="1" fill="#8d6c9f" fill-opacity="1"></use><g><use xlink:href="#a27BZhj2sl" opacity="1" fill-opacity="0" stroke="#000000" stroke-width="1" stroke-opacity="0"></use></g></g></g></svg>