<?xml version="1.0" encoding="UTF-8" standalone="no"?>
<!DOCTYPE svg PUBLIC "-//W3C//DTD SVG 1.1//EN" "http://www.w3.org/Graphics/SVG/1.1/DTD/svg11.dtd">
<svg version="1.1" xmlns="http://www.w3.org/2000/svg" xmlns:xlink="http://www.w3.org/1999/xlink" preserveAspectRatio="xMidYMid meet" viewBox="431.6839916839919 471.722716014635 104.42619542619565 98.47817047817068" width="95.43" height="90.48"><defs><path d="M517.41 471.72C522.77 471.72 527.11 476.06 527.11 481.42C527.11 497.58 527.11 536.35 527.11 552.5C527.11 557.86 522.77 562.2 517.41 562.2C500.27 562.2 458.53 562.2 441.38 562.2C436.03 562.2 431.68 557.86 431.68 552.5C431.68 536.35 431.68 497.58 431.68 481.42C431.68 476.06 436.03 471.72 441.38 471.72C458.53 471.72 500.27 471.72 517.41 471.72Z" id="b8sGT3Gem"></path><path d="M462.23 490.13C462.23 490.58 462.23 492.83 462.23 496.9L479.04 496.9L479.04 502.07C463.34 502.07 454.62 502.07 452.88 502.07C447.77 502.07 442.84 505.76 442.84 516.29C442.84 526.82 447.77 530.52 452.88 530.52C453.52 530.52 456.76 530.52 462.59 530.52C462.59 525.93 462.59 523.38 462.59 522.88C462.59 519.25 465.55 516.29 469.17 516.29C471.14 516.29 486.94 516.29 488.92 516.29C492.54 516.29 495.86 513.33 495.86 509.71C495.86 507.75 495.86 492.08 495.86 490.13C495.85 486.01 491.88 480.09 479.04 480.09C466.21 480.09 462.23 486.17 462.23 490.13Z" id="c1cZtss45b"></path><path d="M495.5 542.46C495.5 542.01 495.5 539.75 495.5 535.69L479.04 535.69L479.04 530.52C494.74 530.52 503.47 530.52 505.21 530.52C510.31 530.52 515.25 526.82 515.25 516.29C515.25 505.76 510.31 502.07 505.21 502.07C504.59 502.07 501.47 502.07 495.85 502.07C495.85 506.65 495.85 509.2 495.85 509.71C495.85 513.33 492.54 516.29 488.92 516.29C486.94 516.29 471.14 516.29 469.17 516.29C465.55 516.29 462.23 519.25 462.23 522.88C462.23 524.83 462.23 540.5 462.23 542.46C462.23 546.41 466.21 552.5 479.04 552.5C491.88 552.5 495.5 546.41 495.5 542.46Z" id="a5E4SERbwD"></path><path d="M468.7 489.78C468.7 491.57 470.15 493.02 471.93 493.02C473.72 493.02 475.16 491.57 475.16 489.78C475.16 488 473.72 486.55 471.93 486.55C470.15 486.55 468.7 488 468.7 489.78ZM484.22 542.8C484.22 544.59 485.66 546.03 487.45 546.03C489.23 546.03 490.68 544.59 490.68 542.8C490.68 541.02 489.23 539.57 487.45 539.57C485.66 539.57 484.22 541.02 484.22 542.8Z" id="d5hxjHgUQ"></path><path d="M452.88 530.52C453.69 530.52 460.21 530.52 461.02 530.52C461.02 526.95 458.13 524.05 454.56 524.05C454.39 524.05 453.04 524.05 452.88 524.05C450.24 524.05 449.3 520.04 449.3 516.29C449.3 512.54 450.24 508.53 452.86 508.53C454.97 508.54 471.81 508.57 473.92 508.57C473.92 508.57 473.93 508.57 473.93 508.57C477.5 508.57 480.39 505.69 480.4 502.12C480.4 502.1 480.39 502.09 480.39 502.07C477.64 502.07 455.63 502.07 452.88 502.07C447.77 502.07 442.84 505.76 442.84 516.29C442.84 526.82 447.77 530.52 452.88 530.52Z" id="b5Qj5Hn7WH"></path><path d="M505.27 502.07C504.46 502.07 497.94 502.07 497.13 502.07C497.13 505.64 500.02 508.53 503.59 508.53C503.76 508.53 505.1 508.53 505.27 508.53C507.91 508.53 508.85 512.54 508.85 516.29C508.85 520.04 507.91 524.05 505.28 524.05C503.18 524.05 486.33 524.01 484.23 524.01C484.23 524.01 484.22 524.01 484.22 524.01C480.65 524.01 477.76 526.9 477.75 530.46C477.75 530.48 477.76 530.5 477.76 530.52C480.51 530.52 502.52 530.52 505.27 530.52C510.37 530.52 515.31 526.82 515.31 516.29C515.31 505.76 510.37 502.07 505.27 502.07Z" id="bd3icpuai"></path><path d="M452.88 531.81C450.22 531.81 441.54 530.69 441.54 516.29C441.54 501.89 450.22 500.78 452.88 500.78C454.53 500.78 462.83 500.78 477.75 500.78L477.75 498.19L460.94 498.19C460.94 493.35 460.94 490.66 460.94 490.13C460.94 486.2 464.72 478.79 479.04 478.79C493.34 478.79 497.15 485.92 497.15 490.13C497.15 492.08 497.15 507.75 497.15 509.71C497.15 513.98 493.38 517.59 488.92 517.59C486.94 517.59 471.14 517.59 469.17 517.59C466.16 517.59 463.53 520.06 463.53 522.88C463.53 523.47 463.53 526.45 463.53 531.81C457.14 531.81 453.59 531.81 452.88 531.81ZM444.13 516.29C444.13 524.51 447.32 529.22 452.88 529.22C453.41 529.22 456.1 529.22 460.94 529.22C460.94 525.41 460.94 523.3 460.94 522.88C460.94 518.61 464.71 515 469.17 515C471.14 515 486.94 515 488.92 515C491.92 515 494.56 512.53 494.56 509.71C494.56 507.75 494.56 492.08 494.56 490.13C494.56 486.88 491.29 481.38 479.04 481.38C466.77 481.38 463.53 487.1 463.53 490.13C463.53 490.49 463.53 492.32 463.53 495.6L480.34 495.6L480.34 503.36L452.88 503.36C447.05 506.5 444.13 510.81 444.13 516.29Z" id="b1am7sjQQP"></path><path d="M460.94 542.46C460.94 540.5 460.94 524.83 460.94 522.88C460.94 518.61 464.71 515 469.17 515C471.14 515 486.94 515 488.92 515C491.92 515 494.56 512.53 494.56 509.71C494.56 509.11 494.56 506.14 494.56 500.78C500.95 500.78 504.5 500.78 505.21 500.78C507.87 500.78 516.54 501.89 516.54 516.29C516.54 530.69 507.87 531.81 505.21 531.81C503.55 531.81 495.26 531.81 480.34 531.81L480.34 534.4L497.15 534.4C497.15 539.23 497.15 541.92 497.15 542.46C497.15 546.38 493.36 553.79 479.04 553.79C464.72 553.79 460.94 546.38 460.94 542.46ZM463.53 522.88C463.53 524.83 463.53 540.5 463.53 542.46C463.53 545.49 466.77 551.21 479.04 551.21C491.32 551.21 494.56 545.49 494.56 542.46C494.56 542.09 494.56 540.27 494.56 536.98L477.75 536.98L477.75 529.22C494.23 529.22 503.38 529.22 505.21 529.22C510.77 529.22 513.96 524.51 513.96 516.29C513.96 508.07 510.77 503.36 505.21 503.36C504.67 503.36 501.99 503.36 497.15 503.36C497.15 507.17 497.15 509.29 497.15 509.71C497.15 513.98 493.38 517.59 488.92 517.59C487.6 517.59 481.02 517.59 469.17 517.59C465.41 519.23 463.53 521 463.53 522.88Z" id="a43GTgZG6t"></path><path d="M485.06 525.34C485.06 525.09 485.06 523.02 485.06 522.76C485.06 522.04 485.64 521.46 486.35 521.46C487.07 521.46 487.65 522.04 487.65 522.76C487.65 523.02 487.65 525.09 487.65 525.34C487.65 526.06 487.07 526.64 486.35 526.64C485.64 526.64 485.06 526.06 485.06 525.34ZM490.96 525.34C490.96 525.09 490.96 523.02 490.96 522.76C490.96 522.04 491.54 521.46 492.26 521.46C492.97 521.46 493.55 522.04 493.55 522.76C493.55 523.02 493.55 525.09 493.55 525.34C493.55 526.06 492.97 526.64 492.26 526.64C491.54 526.64 490.96 526.06 490.96 525.34ZM496.87 525.34C496.87 525.09 496.87 523.02 496.87 522.76C496.87 522.04 497.44 521.46 498.16 521.46C498.87 521.46 499.45 522.04 499.45 522.76C499.45 523.02 499.45 525.09 499.45 525.34C499.45 526.06 498.87 526.64 498.16 526.64C497.44 526.64 496.87 526.06 496.87 525.34ZM502.77 525.34C502.77 525.09 502.77 523.02 502.77 522.76C502.77 522.04 503.35 521.46 504.06 521.46C504.78 521.46 505.36 522.04 505.36 522.76C505.36 523.02 505.36 525.09 505.36 525.34C505.36 526.06 504.78 526.64 504.06 526.64C503.35 526.64 502.77 526.06 502.77 525.34Z" id="ctMEEBHCA"></path><path d="M456.61 509.93C456.61 509.68 456.61 507.61 456.61 507.35C456.61 506.63 457.19 506.05 457.9 506.05C458.62 506.05 459.2 506.63 459.2 507.35C459.2 507.61 459.2 509.68 459.2 509.93C459.2 510.65 458.62 511.23 457.9 511.23C457.19 511.23 456.61 510.65 456.61 509.93ZM462.51 509.93C462.51 509.68 462.51 507.61 462.51 507.35C462.51 506.63 463.09 506.05 463.81 506.05C464.52 506.05 465.1 506.63 465.1 507.35C465.1 507.61 465.1 509.68 465.1 509.93C465.1 510.65 464.52 511.23 463.81 511.23C463.09 511.23 462.51 510.65 462.51 509.93ZM468.42 509.93C468.42 509.68 468.42 507.61 468.42 507.35C468.42 506.63 469 506.05 469.71 506.05C470.43 506.05 471 506.63 471 507.35C471 507.61 471 509.68 471 509.93C471 510.65 470.43 511.23 469.71 511.23C469 511.23 468.42 510.65 468.42 509.93ZM474.32 509.93C474.32 509.68 474.32 507.61 474.32 507.35C474.32 506.63 474.9 506.05 475.61 506.05C476.33 506.05 476.91 506.63 476.91 507.35C476.91 507.61 476.91 509.68 476.91 509.93C476.91 510.65 476.33 511.23 475.61 511.23C474.9 511.23 474.32 510.65 474.32 509.93Z" id="aSPoM8oAN"></path></defs><g><g><g><filter id="shadow6875034" x="415.68" y="455.72" width="133.43" height="127.48" filterUnits="userSpaceOnUse" primitiveUnits="userSpaceOnUse"><feFlood></feFlood><feComposite in2="SourceAlpha" operator="in"></feComposite><feGaussianBlur stdDeviation="1.41"></feGaussianBlur><feOffset dx="6" dy="5" result="afterOffset"></feOffset><feFlood flood-color="#000000" flood-opacity="0.5"></feFlood><feComposite in2="afterOffset" operator="in"></feComposite><feMorphology operator="dilate" radius="1"></feMorphology><feComposite in2="SourceAlpha" operator="out"></feComposite></filter><path d="M517.41 471.72C522.77 471.72 527.11 476.06 527.11 481.42C527.11 497.58 527.11 536.35 527.11 552.5C527.11 557.86 522.77 562.2 517.41 562.2C500.27 562.2 458.53 562.2 441.38 562.2C436.03 562.2 431.68 557.86 431.68 552.5C431.68 536.35 431.68 497.58 431.68 481.42C431.68 476.06 436.03 471.72 441.38 471.72C458.53 471.72 500.27 471.72 517.41 471.72Z" id="f9O58xYLpp" fill="white" fill-opacity="1" filter="url(#shadow6875034)"></path></g><use xlink:href="#b8sGT3Gem" opacity="1" fill="#1a425e" fill-opacity="1"></use></g><g><use xlink:href="#c1cZtss45b" opacity="1" fill="#85cbf8" fill-opacity="1"></use><g><use xlink:href="#c1cZtss45b" opacity="1" fill-opacity="0" stroke="#000000" stroke-width="1" stroke-opacity="0"></use></g></g><g><use xlink:href="#a5E4SERbwD" opacity="1" fill="#f9dd8f" fill-opacity="1"></use><g><use xlink:href="#a5E4SERbwD" opacity="1" fill-opacity="0" stroke="#000000" stroke-width="1" stroke-opacity="0"></use></g></g><g><use xlink:href="#d5hxjHgUQ" opacity="1" fill="#8d6c9e" fill-opacity="1"></use><g><use xlink:href="#d5hxjHgUQ" opacity="1" fill-opacity="0" stroke="#000000" stroke-width="1" stroke-opacity="0"></use></g></g><g><use xlink:href="#b5Qj5Hn7WH" opacity="1" fill="#ace3ff" fill-opacity="1"></use><g><use xlink:href="#b5Qj5Hn7WH" opacity="1" fill-opacity="0" stroke="#000000" stroke-width="1" stroke-opacity="0"></use></g></g><g><use xlink:href="#bd3icpuai" opacity="1" fill="#efc88e" fill-opacity="1"></use><g><use xlink:href="#bd3icpuai" opacity="1" fill-opacity="0" stroke="#000000" stroke-width="1" stroke-opacity="0"></use></g></g><g><use xlink:href="#b1am7sjQQP" opacity="1" fill="#8d6c9f" fill-opacity="1"></use><g><use xlink:href="#b1am7sjQQP" opacity="1" fill-opacity="0" stroke="#000000" stroke-width="1" stroke-opacity="0"></use></g></g><g><use xlink:href="#a43GTgZG6t" opacity="1" fill="#8d6c9e" fill-opacity="1"></use><g><use xlink:href="#a43GTgZG6t" opacity="1" fill-opacity="0" stroke="#000000" stroke-width="1" stroke-opacity="0"></use></g></g><g><use xlink:href="#ctMEEBHCA" opacity="1" fill="#8d6c9f" fill-opacity="1"></use><g><use xlink:href="#ctMEEBHCA" opacity="1" fill-opacity="0" stroke="#000000" stroke-width="1" stroke-opacity="0"></use></g></g><g><use xlink:href="#aSPoM8oAN" opacity="1" fill="#8d6c9f" fill-opacity="1"></use><g><use xlink:href="#aSPoM8oAN" opacity="1" fill-opacity="0" stroke="#000000" stroke-width="1" stroke-opacity="0"></use></g></g></g></svg>