<?xml version="1.0" encoding="UTF-8" standalone="no"?>
<!DOCTYPE svg PUBLIC "-//W3C//DTD SVG 1.1//EN" "http://www.w3.org/Graphics/SVG/1.1/DTD/svg11.dtd">
<svg version="1.1" xmlns="http://www.w3.org/2000/svg" xmlns:xlink="http://www.w3.org/1999/xlink" preserveAspectRatio="xMidYMid meet" viewBox="431.68399168399185 130.00991095758468 104.4261954261957 98.47817047817063" width="95.43" height="90.48"><defs><path d="M517.41 130.01C522.77 130.01 527.11 134.35 527.11 139.71C527.11 155.86 527.11 194.63 527.11 210.79C527.11 216.15 522.77 220.49 517.41 220.49C500.27 220.49 458.53 220.49 441.38 220.49C436.03 220.49 431.68 216.15 431.68 210.79C431.68 194.63 431.68 155.86 431.68 139.71C431.68 134.35 436.03 130.01 441.38 130.01C458.53 130.01 500.27 130.01 517.41 130.01Z" id="e3jSphc2W"></path><linearGradient id="gradienti3zG5dAxLi" gradientUnits="userSpaceOnUse" x1="434.51" y1="217.73" x2="524.99" y2="135.74"><stop style="stop-color: #61dafb;stop-opacity: 1" offset="0%"></stop><stop style="stop-color: #ffffff;stop-opacity: 1" offset="100%"></stop></linearGradient><path d="M481.31 166.8C476.34 166.8 472.31 170.83 472.31 175.8C472.31 180.77 476.34 184.8 481.31 184.8C486.28 184.8 490.31 180.77 490.31 175.8C490.31 170.83 486.28 166.8 481.31 166.8Z" id="dklV1NuTD"></path><linearGradient id="gradienta1el33eOv" gradientUnits="userSpaceOnUse" x1="481.31" y1="165.62" x2="481.31" y2="182.89"><stop style="stop-color: #6dc7ff;stop-opacity: 1" offset="0%"></stop><stop style="stop-color: #e6abff;stop-opacity: 1" offset="100%"></stop></linearGradient><path d="M504.03 162.31C504.36 160.77 504.64 159.25 504.81 157.79C505.8 149.57 504.09 143.81 500 141.57C495.9 139.34 490.13 141.01 483.75 146.29C482.93 146.96 482.12 147.7 481.31 148.47C480.49 147.7 479.68 146.96 478.86 146.29C472.48 141.01 466.71 139.34 462.62 141.57C458.52 143.81 456.81 149.57 457.8 157.79C457.97 159.25 458.25 160.77 458.59 162.31C448.67 165.28 442.31 170.17 442.31 175.8C442.31 181.44 448.67 186.33 458.59 189.29C458.25 190.84 457.97 192.36 457.8 193.81C456.81 202.04 458.52 207.8 462.62 210.03C463.8 210.68 465.12 211 466.56 211C470.09 211 474.32 209.07 478.86 205.31C479.68 204.64 480.49 203.91 481.31 203.14C482.12 203.91 482.93 204.64 483.75 205.31C488.29 209.07 492.52 211 496.05 211C497.49 211 498.81 210.68 500 210.03C504.09 207.8 505.8 202.04 504.81 193.81C504.64 192.36 504.36 190.84 504.03 189.29C513.94 186.33 520.31 181.44 520.31 175.8C520.31 170.17 513.94 165.28 504.03 162.31ZM498.56 144.2C501.46 145.79 502.65 150.61 501.83 157.43C501.68 158.75 501.42 160.13 501.13 161.53C497.95 160.75 494.48 160.15 490.79 159.78C488.45 156.36 485.97 153.25 483.43 150.58C484.17 149.88 484.91 149.22 485.66 148.6C490.95 144.23 495.66 142.62 498.56 144.2ZM489.1 188.98C486.62 189.19 484.02 189.3 481.31 189.3C478.59 189.3 475.99 189.19 473.51 188.98C472.1 186.85 470.74 184.61 469.46 182.27C468.28 180.12 467.21 177.95 466.24 175.8C467.21 173.65 468.28 171.49 469.46 169.33C470.74 166.99 472.1 164.75 473.51 162.62C475.99 162.41 478.59 162.3 481.31 162.3C484.02 162.3 486.62 162.41 489.1 162.62C490.51 164.75 491.88 166.99 493.16 169.33C494.33 171.49 495.4 173.65 496.37 175.8C495.4 177.95 494.33 180.12 493.15 182.27C491.87 184.61 490.51 186.85 489.1 188.98ZM500.44 187.18C498.12 187.74 495.62 188.22 492.92 188.57C493.91 187 494.87 185.38 495.79 183.71C496.55 182.32 497.25 180.93 497.92 179.53C498.94 182.14 499.78 184.7 500.44 187.18ZM475.71 192.14C477.54 192.24 479.4 192.3 481.31 192.3C483.21 192.3 485.08 192.24 486.9 192.14C485.09 194.61 483.21 196.9 481.31 198.91C479.4 196.9 477.52 194.61 475.71 192.14ZM462.17 187.18C462.83 184.7 463.67 182.14 464.69 179.53C465.36 180.93 466.06 182.32 466.82 183.71C467.74 185.38 468.7 187 469.69 188.57C466.99 188.22 464.49 187.74 462.17 187.18ZM462.17 164.43C464.49 163.86 466.99 163.39 469.69 163.03C468.7 164.61 467.74 166.22 466.82 167.9C466.06 169.28 465.36 170.68 464.69 172.07C463.67 169.46 462.83 166.9 462.17 164.43ZM486.9 159.47C485.08 159.36 483.21 159.3 481.31 159.3C479.4 159.3 477.54 159.36 475.71 159.47C477.52 156.99 479.4 154.71 481.31 152.7C483.21 154.71 485.09 156.99 486.9 159.47ZM492.92 163.03C495.62 163.39 498.12 163.86 500.44 164.43C499.78 166.91 498.94 169.46 497.92 172.07C497.25 170.68 496.55 169.28 495.79 167.9C494.87 166.22 493.91 164.61 492.92 163.03ZM464.05 144.21C464.79 143.81 465.63 143.61 466.58 143.61C469.37 143.61 472.99 145.33 476.95 148.6C477.7 149.22 478.44 149.88 479.18 150.58C476.65 153.25 474.17 156.37 471.82 159.78C468.13 160.16 464.66 160.75 461.48 161.53C461.19 160.13 460.94 158.75 460.78 157.43C459.96 150.61 461.15 145.79 464.05 144.21ZM459.28 165.21C460.19 168.63 461.44 172.19 462.99 175.8C461.44 179.41 460.19 182.98 459.28 186.39C450.51 183.76 445.31 179.7 445.31 175.8C445.31 171.9 450.51 167.85 459.28 165.21ZM464.05 207.4C461.15 205.82 459.96 200.99 460.78 194.17C460.94 192.85 461.19 191.48 461.48 190.08C464.66 190.86 468.13 191.45 471.82 191.83C474.17 195.24 476.64 198.35 479.18 201.03C478.44 201.73 477.7 202.39 476.95 203C471.66 207.38 466.96 208.99 464.05 207.4ZM498.56 207.4C495.66 208.99 490.96 207.38 485.66 203C484.91 202.39 484.17 201.72 483.43 201.02C485.97 198.35 488.44 195.24 490.79 191.83C494.48 191.45 497.95 190.85 501.13 190.08C501.42 191.48 501.67 192.85 501.83 194.17C502.65 200.99 501.46 205.82 498.56 207.4ZM499.62 175.8C501.17 172.19 502.42 168.63 503.33 165.21C512.1 167.85 517.31 171.9 517.31 175.8C517.31 179.7 512.1 183.76 503.33 186.39C502.42 182.97 501.17 179.41 499.62 175.8Z" id="b1NhzkO5gA"></path><linearGradient id="gradientb31Zl2lWiM" gradientUnits="userSpaceOnUse" x1="481.31" y1="138.94" x2="481.31" y2="207.96"><stop style="stop-color: #1a6dff;stop-opacity: 1" offset="0%"></stop><stop style="stop-color: #c822ff;stop-opacity: 1" offset="100%"></stop></linearGradient></defs><g><g><g><filter id="shadow2272139" x="415.68" y="114.01" width="133.43" height="127.48" filterUnits="userSpaceOnUse" primitiveUnits="userSpaceOnUse"><feFlood></feFlood><feComposite in2="SourceAlpha" operator="in"></feComposite><feGaussianBlur stdDeviation="1.41"></feGaussianBlur><feOffset dx="6" dy="5" result="afterOffset"></feOffset><feFlood flood-color="#000000" flood-opacity="0.5"></feFlood><feComposite in2="afterOffset" operator="in"></feComposite><feMorphology operator="dilate" radius="1"></feMorphology><feComposite in2="SourceAlpha" operator="out"></feComposite></filter><path d="M517.41 130.01C522.77 130.01 527.11 134.35 527.11 139.71C527.11 155.86 527.11 194.63 527.11 210.79C527.11 216.15 522.77 220.49 517.41 220.49C500.27 220.49 458.53 220.49 441.38 220.49C436.03 220.49 431.68 216.15 431.68 210.79C431.68 194.63 431.68 155.86 431.68 139.71C431.68 134.35 436.03 130.01 441.38 130.01C458.53 130.01 500.27 130.01 517.41 130.01Z" id="d3hrLgdkPP" fill="white" fill-opacity="1" filter="url(#shadow2272139)"></path></g><use xlink:href="#e3jSphc2W" opacity="1" fill="url(#gradienti3zG5dAxLi)"></use></g><g><use xlink:href="#dklV1NuTD" opacity="1" fill="url(#gradienta1el33eOv)"></use><g><use xlink:href="#dklV1NuTD" opacity="1" fill-opacity="0" stroke="#000000" stroke-width="1" stroke-opacity="0"></use></g></g><g><use xlink:href="#b1NhzkO5gA" opacity="1" fill="url(#gradientb31Zl2lWiM)"></use><g><use xlink:href="#b1NhzkO5gA" opacity="1" fill-opacity="0" stroke="#000000" stroke-width="1" stroke-opacity="0"></use></g></g></g></svg>