<?xml version="1.0" encoding="UTF-8" standalone="no"?>
<!DOCTYPE svg PUBLIC "-//W3C//DTD SVG 1.1//EN" "http://www.w3.org/Graphics/SVG/1.1/DTD/svg11.dtd">
<svg version="1.1" xmlns="http://www.w3.org/2000/svg" xmlns:xlink="http://www.w3.org/1999/xlink" preserveAspectRatio="xMidYMid meet" viewBox="161.26602910602918 8.374428274428254 104.42619542619565 98.4781704781706" width="95.43" height="90.48"><defs><path d="M247 8.37C252.35 8.37 256.69 12.72 256.69 18.07C256.69 34.23 256.69 73 256.69 89.16C256.69 94.51 252.35 98.85 247 98.85C229.85 98.85 188.11 98.85 170.96 98.85C165.61 98.85 161.27 94.51 161.27 89.16C161.27 73 161.27 34.23 161.27 18.07C161.27 12.72 165.61 8.37 170.96 8.37C188.11 8.37 229.85 8.37 247 8.37Z" id="a3XeEtCLJb"></path><path d="M166.5 53.57C166.5 43.22 185.15 35.1 208.98 35.1C232.8 35.1 251.46 43.22 251.46 53.57C251.46 63.91 232.8 72.04 208.98 72.04C185.15 72.04 166.5 63.91 166.5 53.57ZM170.19 53.57C170.19 60.77 185.71 68.34 208.98 68.34C232.25 68.34 247.77 60.77 247.77 53.57C247.77 46.36 232.25 38.79 208.98 38.79C185.71 38.79 170.19 46.36 170.19 53.57Z" id="d5mZSMPp9D"></path><path d="M187.74 90.32C178.69 85.15 181.09 65.02 192.91 44.33C192.91 44.33 192.91 44.33 192.91 44.33C198.45 34.73 205.29 26.6 211.93 21.43C219.14 15.89 225.6 14.23 230.03 16.81C234.65 19.4 236.31 25.86 235.21 34.91C234.1 43.41 230.4 53.38 224.86 62.99C219.32 72.59 212.49 80.72 205.84 85.89C201.04 89.58 196.42 91.61 192.54 91.61C190.69 91.61 189.22 91.24 187.74 90.32ZM214.34 24.2C208.06 29.19 201.59 36.94 196.24 46.18C196.24 46.18 196.24 46.18 196.24 46.18C184.6 66.31 183.49 83.67 189.59 87.18C192.73 89.03 197.9 87.37 203.62 82.93C209.9 77.95 216.37 70.19 221.72 60.95C227.08 51.72 230.59 42.3 231.7 34.36C232.62 26.97 231.51 21.8 228.37 19.95C227.45 19.58 226.53 19.21 225.42 19.21C222.46 19.21 218.58 20.88 214.34 24.2Z" id="gk9NMabGG"></path><path d="M193.1 62.8C181.09 42.12 178.69 21.98 187.74 16.81C187.74 16.81 187.74 16.81 187.74 16.81C196.79 11.64 213.04 23.65 225.05 44.33C230.59 53.94 234.28 63.91 235.39 72.41C236.68 81.46 234.84 87.73 230.22 90.51C228.74 91.24 227.26 91.61 225.6 91.61C216.37 91.61 203.07 80.35 193.1 62.8ZM196.24 60.95C207.87 81.09 222.28 90.69 228.37 87.18C231.51 85.33 232.62 80.16 231.7 72.77C230.59 64.83 227.08 55.41 221.72 46.18C210.09 26.05 195.68 16.44 189.59 19.95C189.59 19.95 189.59 19.95 189.59 19.95C186.26 33.87 188.48 47.53 196.24 60.95Z" id="aci9CBkc8"></path><path d="M208.98 46.18C204.9 46.18 201.59 49.49 201.59 53.57C201.59 57.65 204.9 60.95 208.98 60.95C213.06 60.95 216.37 57.65 216.37 53.57C216.37 49.49 213.06 46.18 208.98 46.18Z" id="ajm0wZIiE"></path></defs><g><g><g><filter id="shadow7355581" x="145.27" y="-7.63" width="133.43" height="127.48" filterUnits="userSpaceOnUse" primitiveUnits="userSpaceOnUse"><feFlood></feFlood><feComposite in2="SourceAlpha" operator="in"></feComposite><feGaussianBlur stdDeviation="1.41"></feGaussianBlur><feOffset dx="6" dy="5" result="afterOffset"></feOffset><feFlood flood-color="#000000" flood-opacity="0.5"></feFlood><feComposite in2="afterOffset" operator="in"></feComposite><feMorphology operator="dilate" radius="1"></feMorphology><feComposite in2="SourceAlpha" operator="out"></feComposite></filter><path d="M247 8.37C252.35 8.37 256.69 12.72 256.69 18.07C256.69 34.23 256.69 73 256.69 89.16C256.69 94.51 252.35 98.85 247 98.85C229.85 98.85 188.11 98.85 170.96 98.85C165.61 98.85 161.27 94.51 161.27 89.16C161.27 73 161.27 34.23 161.27 18.07C161.27 12.72 165.61 8.37 170.96 8.37C188.11 8.37 229.85 8.37 247 8.37Z" id="aitbLHPdK" fill="white" fill-opacity="1" filter="url(#shadow7355581)"></path></g><use xlink:href="#a3XeEtCLJb" opacity="1" fill="#2b2b2b" fill-opacity="1"></use></g><g><use xlink:href="#d5mZSMPp9D" opacity="1" fill="#80deea" fill-opacity="1"></use><g><use xlink:href="#d5mZSMPp9D" opacity="1" fill-opacity="0" stroke="#000000" stroke-width="1" stroke-opacity="0"></use></g></g><g><use xlink:href="#gk9NMabGG" opacity="1" fill="#80deea" fill-opacity="1"></use><g><use xlink:href="#gk9NMabGG" opacity="1" fill-opacity="0" stroke="#000000" stroke-width="1" stroke-opacity="0"></use></g></g><g><use xlink:href="#aci9CBkc8" opacity="1" fill="#80deea" fill-opacity="1"></use><g><use xlink:href="#aci9CBkc8" opacity="1" fill-opacity="0" stroke="#000000" stroke-width="1" stroke-opacity="0"></use></g></g><g><use xlink:href="#ajm0wZIiE" opacity="1" fill="#80deea" fill-opacity="1"></use><g><use xlink:href="#ajm0wZIiE" opacity="1" fill-opacity="0" stroke="#000000" stroke-width="1" stroke-opacity="0"></use></g></g></g></svg>