<?xml version="1.0" encoding="UTF-8" standalone="no"?>
<!DOCTYPE svg PUBLIC "-//W3C//DTD SVG 1.1//EN" "http://www.w3.org/Graphics/SVG/1.1/DTD/svg11.dtd">
<svg version="1.1" xmlns="http://www.w3.org/2000/svg" xmlns:xlink="http://www.w3.org/1999/xlink" preserveAspectRatio="xMidYMid meet" viewBox="431.68399168399174 363.14065217343244 104.42619542619582 98.47817047817068" width="95.43" height="90.48"><defs><path d="M517.41 363.14C522.77 363.14 527.11 367.48 527.11 372.84C527.11 388.99 527.11 427.77 527.11 443.92C527.11 449.28 522.77 453.62 517.41 453.62C500.27 453.62 458.53 453.62 441.38 453.62C436.03 453.62 431.68 449.28 431.68 443.92C431.68 427.77 431.68 388.99 431.68 372.84C431.68 367.48 436.03 363.14 441.38 363.14C458.53 363.14 500.27 363.14 517.41 363.14Z" id="a3VL3HzbHW"></path><path d="M455.3 400.4C455.3 410.07 458.47 418.74 463.46 424.68C463.36 425.1 463.3 425.54 463.3 425.99C463.3 429.31 465.99 431.99 469.3 431.99C472.62 431.99 475.3 429.31 475.3 425.99C475.3 422.68 472.62 419.99 469.3 419.99C468.67 419.99 468.08 420.12 467.51 420.3C463.72 415.46 461.3 408.34 461.3 400.4C461.3 385.84 469.38 373.99 479.3 373.99C486.98 373.99 493.53 381.09 496.11 391.03C498.36 391.72 500.59 392.59 502.77 393.65C500.46 379.01 490.82 367.99 479.3 367.99C466.07 367.99 455.3 382.53 455.3 400.4Z" id="hnkLR004"></path><path d="M479.95 394.24C478.85 392.88 477.19 391.99 475.3 391.99C471.99 391.99 469.3 394.68 469.3 397.99C469.3 401.31 471.99 403.99 475.3 403.99C477.85 403.99 480.01 402.4 480.88 400.17C487.12 399.41 494.51 401.23 501.21 405.3C514.01 413.06 520.55 426.43 515.77 435.12C514.12 438.13 511.2 440.26 507.34 441.3C502.76 442.52 497.32 442.09 491.88 440.24C490.2 441.79 488.38 443.24 486.43 444.58C491.54 446.81 496.82 447.99 501.77 447.99C504.25 447.99 506.65 447.69 508.89 447.09C514.37 445.63 518.57 442.48 521.03 438.01C527.34 426.55 519.84 409.57 504.32 400.16C496.42 395.38 487.57 393.28 479.95 394.24Z" id="a7VPDfM5Bn"></path><path d="M497.3 411.99C493.99 411.99 491.3 414.67 491.3 417.98C491.3 419.32 491.76 420.54 492.5 421.54C489.95 427.14 485.02 432.67 478.38 436.69C470.65 441.38 462.01 443.1 455.27 441.3C451.41 440.26 448.49 438.12 446.83 435.12C443.43 428.93 445.79 420.36 452.05 413.14C451.41 410.85 450.93 408.46 450.64 405.99C440.5 415.58 436.42 428.64 441.58 438.01C444.04 442.48 448.24 445.63 453.72 447.09C455.96 447.69 458.36 447.99 460.84 447.99C467.53 447.99 474.85 445.85 481.49 441.83C489.16 437.18 494.86 430.67 497.91 423.9C500.93 423.6 503.3 421.08 503.3 417.98C503.3 414.67 500.62 411.99 497.3 411.99Z" id="alEAAEcA3"></path></defs><g><g><g><filter id="shadow4469057" x="415.68" y="347.14" width="133.43" height="127.48" filterUnits="userSpaceOnUse" primitiveUnits="userSpaceOnUse"><feFlood></feFlood><feComposite in2="SourceAlpha" operator="in"></feComposite><feGaussianBlur stdDeviation="1.41"></feGaussianBlur><feOffset dx="6" dy="5" result="afterOffset"></feOffset><feFlood flood-color="#000000" flood-opacity="0.5"></feFlood><feComposite in2="afterOffset" operator="in"></feComposite><feMorphology operator="dilate" radius="1"></feMorphology><feComposite in2="SourceAlpha" operator="out"></feComposite></filter><path d="M517.41 363.14C522.77 363.14 527.11 367.48 527.11 372.84C527.11 388.99 527.11 427.77 527.11 443.92C527.11 449.28 522.77 453.62 517.41 453.62C500.27 453.62 458.53 453.62 441.38 453.62C436.03 453.62 431.68 449.28 431.68 443.92C431.68 427.77 431.68 388.99 431.68 372.84C431.68 367.48 436.03 363.14 441.38 363.14C458.53 363.14 500.27 363.14 517.41 363.14Z" id="aNwzQXo1e" fill="white" fill-opacity="1" filter="url(#shadow4469057)"></path></g><use xlink:href="#a3VL3HzbHW" opacity="1" fill="#764abb" fill-opacity="1"></use></g><g><use xlink:href="#hnkLR004" opacity="1" fill="#ffffff" fill-opacity="1"></use><g><use xlink:href="#hnkLR004" opacity="1" fill-opacity="0" stroke="#000000" stroke-width="1" stroke-opacity="0"></use></g></g><g><use xlink:href="#a7VPDfM5Bn" opacity="1" fill="#ffffff" fill-opacity="1"></use><g><use xlink:href="#a7VPDfM5Bn" opacity="1" fill-opacity="0" stroke="#000000" stroke-width="1" stroke-opacity="0"></use></g></g><g><use xlink:href="#alEAAEcA3" opacity="1" fill="#ffffff" fill-opacity="1"></use><g><use xlink:href="#alEAAEcA3" opacity="1" fill-opacity="0" stroke="#000000" stroke-width="1" stroke-opacity="0"></use></g></g></g></svg>