<?xml version="1.0" encoding="UTF-8" standalone="no"?>
<!DOCTYPE svg PUBLIC "-//W3C//DTD SVG 1.1//EN" "http://www.w3.org/Graphics/SVG/1.1/DTD/svg11.dtd">
<svg version="1.1" xmlns="http://www.w3.org/2000/svg" xmlns:xlink="http://www.w3.org/1999/xlink" preserveAspectRatio="xMidYMid meet" viewBox="532.4641335279637 8.378135902658784 104.42619542619559 98.4781704781706" width="95.43" height="90.48"><defs><path d="M618.19 8.38C623.55 8.38 627.89 12.72 627.89 18.08C627.89 34.23 627.89 73 627.89 89.16C627.89 94.51 623.55 98.86 618.19 98.86C601.05 98.86 559.31 98.86 542.16 98.86C536.81 98.86 532.46 94.51 532.46 89.16C532.46 73 532.46 34.23 532.46 18.08C532.46 12.72 536.81 8.38 542.16 8.38C559.31 8.38 601.05 8.38 618.19 8.38Z" id="a1iiH1uuNo"></path><path d="M610.94 27.86C610.75 27.3 609.81 24.51 608.12 19.47C605.82 24.26 604.54 26.92 604.28 27.45C604.08 27.88 603.85 28.3 603.6 28.71C597.3 23.3 589.13 20.01 580.18 20.01C560.29 20.01 544.18 36.13 544.18 56C544.18 75.88 560.29 91.99 580.18 91.99C600.06 91.99 616.18 75.88 616.18 56C616.18 55.78 616.15 55.57 616.14 55.35C616.27 47.68 614.54 38.56 610.94 27.86Z" id="bpHA7a531"></path><path d="M582.93 79.4C582.12 79.4 578.05 79.4 570.73 79.4C568.63 79.4 567.47 79.4 567.24 79.4C575.21 76.53 579.95 75.85 584.8 73.28C593.92 68.48 602.94 57.99 604.81 47.07C601.34 57.58 590.81 66.6 581.22 70.27C574.64 72.78 562.77 75.21 562.77 75.21C562.72 75.18 562.34 74.97 562.29 74.95C554.21 70.88 553.96 52.79 568.66 46.95C575.09 44.39 581.24 45.8 588.19 44.08C595.61 42.26 604.2 36.51 607.69 29.01C611.6 41.01 616.3 59.79 607.87 71.4C607.87 71.4 607.87 71.4 607.87 71.4C597.49 76.84 589.18 79.51 582.93 79.4ZM563.09 83C561.6 83 560.4 81.78 560.4 80.3C560.4 78.82 561.61 77.6 563.09 77.6C563.7 77.6 564.3 77.81 564.78 78.2C565.93 79.14 566.11 80.85 565.18 82C565.18 82 565.18 82 565.18 82C564.32 82.66 563.63 83 563.09 83Z" id="b14Y0OBKD"></path></defs><g><g><g><filter id="shadow15979981" x="516.46" y="-7.62" width="133.43" height="127.48" filterUnits="userSpaceOnUse" primitiveUnits="userSpaceOnUse"><feFlood></feFlood><feComposite in2="SourceAlpha" operator="in"></feComposite><feGaussianBlur stdDeviation="1.41"></feGaussianBlur><feOffset dx="6" dy="5" result="afterOffset"></feOffset><feFlood flood-color="#000000" flood-opacity="0.5"></feFlood><feComposite in2="afterOffset" operator="in"></feComposite><feMorphology operator="dilate" radius="1"></feMorphology><feComposite in2="SourceAlpha" operator="out"></feComposite></filter><path d="M618.19 8.38C623.55 8.38 627.89 12.72 627.89 18.08C627.89 34.23 627.89 73 627.89 89.16C627.89 94.51 623.55 98.86 618.19 98.86C601.05 98.86 559.31 98.86 542.16 98.86C536.81 98.86 532.46 94.51 532.46 89.16C532.46 73 532.46 34.23 532.46 18.08C532.46 12.72 536.81 8.38 542.16 8.38C559.31 8.38 601.05 8.38 618.19 8.38Z" id="a2rMnPSLpg" fill="white" fill-opacity="1" filter="url(#shadow15979981)"></path></g><use xlink:href="#a1iiH1uuNo" opacity="1" fill="#6cb23e" fill-opacity="1"></use></g><g><use xlink:href="#bpHA7a531" opacity="1" fill="#8bc34a" fill-opacity="1"></use><g><use xlink:href="#bpHA7a531" opacity="1" fill-opacity="0" stroke="#000000" stroke-width="1" stroke-opacity="0"></use></g></g><g><use xlink:href="#b14Y0OBKD" opacity="1" fill="#ffffff" fill-opacity="1"></use><g><use xlink:href="#b14Y0OBKD" opacity="1" fill-opacity="0" stroke="#000000" stroke-width="1" stroke-opacity="0"></use></g></g></g></svg>