<?xml version="1.0" encoding="UTF-8" standalone="no"?>
<!DOCTYPE svg PUBLIC "-//W3C//DTD SVG 1.1//EN" "http://www.w3.org/Graphics/SVG/1.1/DTD/svg11.dtd">
<svg version="1.1" xmlns="http://www.w3.org/2000/svg" xmlns:xlink="http://www.w3.org/1999/xlink" preserveAspectRatio="xMidYMid meet" viewBox="536.9640153118594 471.722716014635 104.42619542619559 98.47817047817068" width="95.43" height="90.48"><defs><path d="M622.69 471.72C628.05 471.72 632.39 476.06 632.39 481.42C632.39 497.58 632.39 536.35 632.39 552.5C632.39 557.86 628.05 562.2 622.69 562.2C605.55 562.2 563.81 562.2 546.66 562.2C541.31 562.2 536.96 557.86 536.96 552.5C536.96 536.35 536.96 497.58 536.96 481.42C536.96 476.06 541.31 471.72 546.66 471.72C563.81 471.72 605.55 471.72 622.69 471.72Z" id="bHTOw9oNN"></path><path d="M575.55 489.5L548.18 489.5L584.68 552L621.18 489.5L593.8 489.5L584.68 505.13L575.55 489.5Z" id="b3qkk5uor"></path><path d="M584.68 505.13L575.55 489.5L562.37 489.5L584.68 527.69L606.98 489.5L593.8 489.5L584.68 505.13Z" id="b13CEnSZ0a"></path></defs><g><g><g><filter id="shadow5635380" x="520.96" y="455.72" width="133.43" height="127.48" filterUnits="userSpaceOnUse" primitiveUnits="userSpaceOnUse"><feFlood></feFlood><feComposite in2="SourceAlpha" operator="in"></feComposite><feGaussianBlur stdDeviation="1.41"></feGaussianBlur><feOffset dx="6" dy="5" result="afterOffset"></feOffset><feFlood flood-color="#000000" flood-opacity="0.5"></feFlood><feComposite in2="afterOffset" operator="in"></feComposite><feMorphology operator="dilate" radius="1"></feMorphology><feComposite in2="SourceAlpha" operator="out"></feComposite></filter><path d="M622.69 471.72C628.05 471.72 632.39 476.06 632.39 481.42C632.39 497.58 632.39 536.35 632.39 552.5C632.39 557.86 628.05 562.2 622.69 562.2C605.55 562.2 563.81 562.2 546.66 562.2C541.31 562.2 536.96 557.86 536.96 552.5C536.96 536.35 536.96 497.58 536.96 481.42C536.96 476.06 541.31 471.72 546.66 471.72C563.81 471.72 605.55 471.72 622.69 471.72Z" id="a3ERFjUGLo" fill="white" fill-opacity="1" filter="url(#shadow5635380)"></path></g><use xlink:href="#bHTOw9oNN" opacity="1" fill="#365862" fill-opacity="1"></use></g><g><use xlink:href="#b3qkk5uor" opacity="1" fill="#81c784" fill-opacity="1"></use><g><use xlink:href="#b3qkk5uor" opacity="1" fill-opacity="0" stroke="#000000" stroke-width="1" stroke-opacity="0"></use></g></g><g><use xlink:href="#b13CEnSZ0a" opacity="1" fill="#455a64" fill-opacity="1"></use><g><use xlink:href="#b13CEnSZ0a" opacity="1" fill-opacity="0" stroke="#000000" stroke-width="1" stroke-opacity="0"></use></g></g></g></svg>