<?xml version="1.0" encoding="UTF-8" standalone="no"?>
<!DOCTYPE svg PUBLIC "-//W3C//DTD SVG 1.1//EN" "http://www.w3.org/Graphics/SVG/1.1/DTD/svg11.dtd">
<svg version="1.1" xmlns="http://www.w3.org/2000/svg" xmlns:xlink="http://www.w3.org/1999/xlink" preserveAspectRatio="xMidYMid meet" viewBox="25.16673832588731 129.95446985446992 104.42619542619565 98.47817047817065" width="95.43" height="90.48"><defs><path d="M110.9 129.95C116.25 129.95 120.59 134.3 120.59 139.65C120.59 155.81 120.59 194.58 120.59 210.74C120.59 216.09 116.25 220.43 110.9 220.43C93.75 220.43 52.01 220.43 34.86 220.43C29.51 220.43 25.17 216.09 25.17 210.74C25.17 194.58 25.17 155.81 25.17 139.65C25.17 134.3 29.51 129.95 34.86 129.95C52.01 129.95 93.75 129.95 110.9 129.95Z" id="fyHVHQC3m"></path><path d="M72.23 139.46L106.26 157.78L72.23 176.11L39.5 157.78L72.23 139.46Z" id="a55LsFGY1S"></path><path d="M38.19 197.06L72.23 216.7L72.23 176.11L38.19 157.78L38.19 197.06Z" id="k4gDhGFNkw"></path><path d="M72.23 155.17L91.86 165.64L72.23 176.11L52.59 165.64L72.23 155.17Z" id="d5TxClbX"></path><path d="M107.57 197.06L107.57 157.78L72.23 176.11L72.23 216.7L107.57 197.06Z" id="l4Xgnp40DS"></path><path d="M52.59 189.2L72.23 199.68L72.23 176.11L52.59 165.64L52.59 189.2Z" id="bnpsLjsqP"></path><path d="M91.86 189.2L91.86 165.64L72.23 176.11L72.23 199.68L91.86 189.2Z" id="a4Yg7iTNPn"></path><path d="M38.19 197.06L38.19 157.78L52.59 165.64L52.59 189.2L38.19 197.06Z" id="aTT85sI2"></path><path d="M71.61 177.27C69.64 176.22 53.94 167.84 51.97 166.8C51.55 166.57 51.28 166.12 51.28 165.64C51.28 165.16 51.55 164.71 51.97 164.48C53.94 163.44 69.64 155.06 71.61 154.01C71.99 153.81 72.46 153.81 72.84 154.01C74.8 155.06 90.51 163.44 92.48 164.48C92.9 164.71 93.17 165.16 93.17 165.64C93.17 166.12 92.9 166.57 92.48 166.8C90.51 167.84 74.81 176.22 72.84 177.27C72.65 177.37 72.44 177.42 72.23 177.42C72.01 177.42 71.8 177.37 71.61 177.27ZM72.23 174.63L89.08 165.64L72.23 156.65L55.37 165.64L72.23 174.63Z" id="c2TdekQc0Z"></path><path d="M51.28 169.57C51.28 169.36 51.28 168.31 51.28 166.42C43.05 161.93 38.48 159.43 37.56 158.93C37.14 158.7 36.88 158.26 36.88 157.78C36.88 157.3 37.15 156.86 37.57 156.63C40.97 154.8 68.2 140.14 71.6 138.3C72.24 137.96 73.04 138.2 73.38 138.84C73.72 139.47 73.48 140.27 72.85 140.61C70.72 141.75 60.08 147.48 40.94 157.79C48.3 161.81 52.4 164.04 53.22 164.49C53.64 164.72 53.9 165.16 53.9 165.64C53.9 166.03 53.9 169.17 53.9 169.57C53.9 170.29 53.31 170.88 52.59 170.88C51.87 170.88 51.28 170.29 51.28 169.57Z" id="c24eQdOTZ"></path><path d="M51.28 180.04C51.28 179.52 51.28 175.33 51.28 174.8C51.28 174.08 51.87 173.49 52.59 173.49C53.31 173.49 53.9 174.08 53.9 174.8C53.9 175.33 53.9 179.52 53.9 180.04C53.9 180.76 53.31 181.35 52.59 181.35C51.87 181.35 51.28 180.76 51.28 180.04Z" id="c10ZmCiyoB"></path><path d="M71.61 200.83C69.64 199.79 53.94 191.41 51.97 190.36C51.55 190.13 51.28 189.69 51.28 189.2C51.28 188.81 51.28 185.67 51.28 185.28C51.28 184.55 51.87 183.97 52.59 183.97C53.31 183.97 53.9 184.55 53.9 185.28C53.9 185.49 53.9 186.53 53.9 188.42L70.92 197.5C70.92 184.67 70.92 177.54 70.92 176.11C70.92 175.39 71.5 174.8 72.23 174.8C72.95 174.8 73.53 175.39 73.53 176.11C73.53 178.47 73.53 197.32 73.53 199.68C73.53 200.14 73.29 200.56 72.9 200.8C72.69 200.92 72.46 200.99 72.23 200.99C72.01 200.99 71.8 200.94 71.61 200.83Z" id="a36AQzbFvy"></path><path d="M72.23 215.39L72.23 199.68L91.86 189.2L107.57 197.06L72.23 215.39Z" id="b1oI9loBOT"></path><path d="M71.56 217.83C71.16 217.59 70.92 217.16 70.92 216.7C70.92 215 70.92 201.38 70.92 199.68C70.92 198.95 71.5 198.37 72.23 198.37C72.95 198.37 73.53 198.95 73.53 199.68C73.53 200.66 73.53 205.6 73.53 214.47C93.57 203.34 104.71 197.15 106.93 195.92C107.57 195.56 108.36 195.79 108.71 196.42C109.07 197.06 108.84 197.85 108.21 198.2C104.67 200.17 76.4 215.88 72.86 217.84C72.66 217.95 72.44 218.01 72.23 218.01C72 218.01 71.77 217.95 71.56 217.83Z" id="e4fmozL0vT"></path><path d="M90.55 189.2C90.55 186.85 90.55 168 90.55 165.64C90.55 165.14 90.83 164.69 91.28 164.47C92.17 164.02 96.64 161.79 104.69 157.76L73.53 141.61C73.53 149.74 73.53 154.26 73.53 155.17C73.53 155.89 72.95 156.48 72.23 156.48C71.5 156.48 70.92 155.89 70.92 155.17C70.92 153.6 70.92 141.03 70.92 139.46C70.92 139 71.15 138.58 71.54 138.34C71.93 138.1 72.42 138.08 72.83 138.3C76.36 140.13 104.64 154.79 108.17 156.62C108.61 156.85 108.88 157.3 108.88 157.8C108.88 158.29 108.6 158.74 108.16 158.96C107.16 159.46 102.16 161.95 93.17 166.45C93.17 180.1 93.17 187.69 93.17 189.2C93.17 189.93 92.58 190.51 91.86 190.51C91.14 190.51 90.55 189.93 90.55 189.2Z" id="a3V5qcW2cp"></path><path d="M86.96 193.3C86.84 193.07 85.85 191.22 85.73 190.99C85.39 190.36 85.63 189.56 86.27 189.22C86.91 188.88 87.7 189.12 88.04 189.76C88.16 189.99 89.15 191.84 89.27 192.07C89.61 192.71 89.37 193.5 88.73 193.84C88.53 193.95 88.32 194 88.12 194C87.65 194 87.2 193.75 86.96 193.3Z" id="b53LHaYF8x"></path><path d="M81.5 196.21C81.38 195.98 80.4 194.13 80.27 193.9C79.93 193.26 80.17 192.47 80.81 192.13C81.45 191.79 82.24 192.03 82.58 192.67C82.71 192.9 83.69 194.75 83.82 194.98C84.16 195.62 83.91 196.41 83.28 196.75C83.08 196.86 82.87 196.91 82.66 196.91C82.19 196.91 81.74 196.66 81.5 196.21Z" id="dlTn3eJ3I"></path><path d="M76.05 199.12C75.93 198.89 74.94 197.04 74.82 196.81C74.48 196.17 74.72 195.38 75.36 195.04C76 194.7 76.79 194.94 77.13 195.58C77.25 195.81 78.24 197.66 78.36 197.89C78.7 198.53 78.46 199.32 77.82 199.66C77.62 199.76 77.41 199.81 77.21 199.81C76.74 199.81 76.29 199.56 76.05 199.12Z" id="ah5EJDylC"></path><path d="M106.99 198.23C105.41 197.45 92.85 191.16 91.28 190.38C90.63 190.05 90.37 189.27 90.69 188.62C91.01 187.97 91.8 187.71 92.45 188.03C93.37 188.49 97.97 190.8 106.26 194.94C106.26 172.65 106.26 160.26 106.26 157.78C106.26 157.06 106.85 156.48 107.57 156.48C108.29 156.48 108.88 157.06 108.88 157.78C108.88 161.71 108.88 193.13 108.88 197.06C108.88 197.51 108.64 197.93 108.26 198.17C108.05 198.3 107.81 198.37 107.57 198.37C107.37 198.37 107.17 198.32 106.99 198.23Z" id="cMSHeDOjg"></path><path d="M37.52 198.19C37.12 197.95 36.88 197.52 36.88 197.06C36.88 193.13 36.88 161.71 36.88 157.78C36.88 157.06 37.47 156.48 38.19 156.48C38.91 156.48 39.5 157.06 39.5 157.78C39.5 160.26 39.5 172.61 39.5 194.85C46.98 190.77 51.13 188.51 51.96 188.06C52.6 187.71 53.39 187.94 53.74 188.58C54.09 189.21 53.85 190.01 53.22 190.35C51.78 191.14 40.26 197.42 38.82 198.21C38.62 198.32 38.4 198.37 38.19 198.37C37.96 198.37 37.73 198.31 37.52 198.19Z" id="aMyT2tQYB"></path><path d="M71.57 217.83C68.17 215.87 40.94 200.16 37.53 198.19C36.91 197.83 36.69 197.03 37.06 196.41C37.42 195.78 38.22 195.56 38.84 195.93C42.25 197.89 69.48 213.6 72.88 215.56C73.51 215.92 73.72 216.73 73.36 217.35C73.12 217.77 72.68 218.01 72.22 218.01C72 218.01 71.78 217.95 71.57 217.83Z" id="b4fhhw85GV"></path></defs><g><g><g><filter id="shadow4201932" x="9.17" y="113.95" width="133.43" height="127.48" filterUnits="userSpaceOnUse" primitiveUnits="userSpaceOnUse"><feFlood></feFlood><feComposite in2="SourceAlpha" operator="in"></feComposite><feGaussianBlur stdDeviation="1.41"></feGaussianBlur><feOffset dx="6" dy="5" result="afterOffset"></feOffset><feFlood flood-color="#000000" flood-opacity="0.5"></feFlood><feComposite in2="afterOffset" operator="in"></feComposite><feMorphology operator="dilate" radius="1"></feMorphology><feComposite in2="SourceAlpha" operator="out"></feComposite></filter><path d="M110.9 129.95C116.25 129.95 120.59 134.3 120.59 139.65C120.59 155.81 120.59 194.58 120.59 210.74C120.59 216.09 116.25 220.43 110.9 220.43C93.75 220.43 52.01 220.43 34.86 220.43C29.51 220.43 25.17 216.09 25.17 210.74C25.17 194.58 25.17 155.81 25.17 139.65C25.17 134.3 29.51 129.95 34.86 129.95C52.01 129.95 93.75 129.95 110.9 129.95Z" id="a3lRGIgFEQ" fill="white" fill-opacity="1" filter="url(#shadow4201932)"></path></g><use xlink:href="#fyHVHQC3m" opacity="1" fill="#8ed6fb" fill-opacity="1"></use></g><g><use xlink:href="#a55LsFGY1S" opacity="1" fill="#ace3ff" fill-opacity="1"></use><g><use xlink:href="#a55LsFGY1S" opacity="1" fill-opacity="0" stroke="#000000" stroke-width="1" stroke-opacity="0"></use></g></g><g><use xlink:href="#k4gDhGFNkw" opacity="1" fill="#ace3ff" fill-opacity="1"></use><g><use xlink:href="#k4gDhGFNkw" opacity="1" fill-opacity="0" stroke="#000000" stroke-width="1" stroke-opacity="0"></use></g></g><g><use xlink:href="#d5TxClbX" opacity="1" fill="#7bbeeb" fill-opacity="1"></use><g><use xlink:href="#d5TxClbX" opacity="1" fill-opacity="0" stroke="#000000" stroke-width="1" stroke-opacity="0"></use></g></g><g><use xlink:href="#l4Xgnp40DS" opacity="1" fill="#ace3ff" fill-opacity="1"></use><g><use xlink:href="#l4Xgnp40DS" opacity="1" fill-opacity="0" stroke="#000000" stroke-width="1" stroke-opacity="0"></use></g></g><g><use xlink:href="#bnpsLjsqP" opacity="1" fill="#7bbeeb" fill-opacity="1"></use><g><use xlink:href="#bnpsLjsqP" opacity="1" fill-opacity="0" stroke="#000000" stroke-width="1" stroke-opacity="0"></use></g></g><g><use xlink:href="#a4Yg7iTNPn" opacity="1" fill="#7bbeeb" fill-opacity="1"></use><g><use xlink:href="#a4Yg7iTNPn" opacity="1" fill-opacity="0" stroke="#000000" stroke-width="1" stroke-opacity="0"></use></g></g><g><use xlink:href="#aTT85sI2" opacity="1" fill="#e3f2ff" fill-opacity="1"></use><g><use xlink:href="#aTT85sI2" opacity="1" fill-opacity="0" stroke="#000000" stroke-width="1" stroke-opacity="0"></use></g></g><g><use xlink:href="#c2TdekQc0Z" opacity="1" fill="#8d6c9f" fill-opacity="1"></use><g><use xlink:href="#c2TdekQc0Z" opacity="1" fill-opacity="0" stroke="#000000" stroke-width="1" stroke-opacity="0"></use></g></g><g><use xlink:href="#c24eQdOTZ" opacity="1" fill="#8d6c9f" fill-opacity="1"></use><g><use xlink:href="#c24eQdOTZ" opacity="1" fill-opacity="0" stroke="#000000" stroke-width="1" stroke-opacity="0"></use></g></g><g><use xlink:href="#c10ZmCiyoB" opacity="1" fill="#8d6c9f" fill-opacity="1"></use><g><use xlink:href="#c10ZmCiyoB" opacity="1" fill-opacity="0" stroke="#000000" stroke-width="1" stroke-opacity="0"></use></g></g><g><use xlink:href="#a36AQzbFvy" opacity="1" fill="#8d6c9f" fill-opacity="1"></use><g><use xlink:href="#a36AQzbFvy" opacity="1" fill-opacity="0" stroke="#000000" stroke-width="1" stroke-opacity="0"></use></g></g><g><use xlink:href="#b1oI9loBOT" opacity="1" fill="#85cbf8" fill-opacity="1"></use><g><use xlink:href="#b1oI9loBOT" opacity="1" fill-opacity="0" stroke="#000000" stroke-width="1" stroke-opacity="0"></use></g></g><g><use xlink:href="#e4fmozL0vT" opacity="1" fill="#8d6c9f" fill-opacity="1"></use><g><use xlink:href="#e4fmozL0vT" opacity="1" fill-opacity="0" stroke="#000000" stroke-width="1" stroke-opacity="0"></use></g></g><g><use xlink:href="#a3V5qcW2cp" opacity="1" fill="#8d6c9f" fill-opacity="1"></use><g><use xlink:href="#a3V5qcW2cp" opacity="1" fill-opacity="0" stroke="#000000" stroke-width="1" stroke-opacity="0"></use></g></g><g><use xlink:href="#b53LHaYF8x" opacity="1" fill="#8d6c9f" fill-opacity="1"></use><g><use xlink:href="#b53LHaYF8x" opacity="1" fill-opacity="0" stroke="#000000" stroke-width="1" stroke-opacity="0"></use></g></g><g><use xlink:href="#dlTn3eJ3I" opacity="1" fill="#8d6c9f" fill-opacity="1"></use><g><use xlink:href="#dlTn3eJ3I" opacity="1" fill-opacity="0" stroke="#000000" stroke-width="1" stroke-opacity="0"></use></g></g><g><use xlink:href="#ah5EJDylC" opacity="1" fill="#8d6c9f" fill-opacity="1"></use><g><use xlink:href="#ah5EJDylC" opacity="1" fill-opacity="0" stroke="#000000" stroke-width="1" stroke-opacity="0"></use></g></g><g><use xlink:href="#cMSHeDOjg" opacity="1" fill="#8d6c9f" fill-opacity="1"></use><g><use xlink:href="#cMSHeDOjg" opacity="1" fill-opacity="0" stroke="#000000" stroke-width="1" stroke-opacity="0"></use></g></g><g><use xlink:href="#aMyT2tQYB" opacity="1" fill="#8d6c9f" fill-opacity="1"></use><g><use xlink:href="#aMyT2tQYB" opacity="1" fill-opacity="0" stroke="#000000" stroke-width="1" stroke-opacity="0"></use></g></g><g><use xlink:href="#b4fhhw85GV" opacity="1" fill="#8d6c9f" fill-opacity="1"></use><g><use xlink:href="#b4fhhw85GV" opacity="1" fill-opacity="0" stroke="#000000" stroke-width="1" stroke-opacity="0"></use></g></g></g></svg>