<?xml version="1.0" encoding="UTF-8" standalone="no"?>
<!DOCTYPE svg PUBLIC "-//W3C//DTD SVG 1.1//EN" "http://www.w3.org/Graphics/SVG/1.1/DTD/svg11.dtd">
<svg version="1.1" xmlns="http://www.w3.org/2000/svg" xmlns:xlink="http://www.w3.org/1999/xlink" preserveAspectRatio="xMidYMid meet" viewBox="532.4641335279637 243.2115741592485 104.42619542619559 98.47817047817065" width="95.43" height="90.48"><defs><path d="M618.19 243.21C623.55 243.21 627.89 247.55 627.89 252.91C627.89 269.06 627.89 307.84 627.89 323.99C627.89 329.35 623.55 333.69 618.19 333.69C601.05 333.69 559.31 333.69 542.16 333.69C536.81 333.69 532.46 329.35 532.46 323.99C532.46 307.84 532.46 269.06 532.46 252.91C532.46 247.55 536.81 243.21 542.16 243.21C559.31 243.21 601.05 243.21 618.19 243.21Z" id="cImIREFwZ"></path><path d="M548.46 269.72C544.71 269.72 541.68 272.75 541.68 276.5C541.68 279.21 541.68 300.91 541.68 303.62C541.68 307.37 544.71 310.4 548.46 310.4C550.61 310.4 561.35 310.4 580.68 310.4L594.24 317.19L590.85 310.4C604.08 310.4 611.43 310.4 612.89 310.4C616.64 310.4 619.68 307.37 619.68 303.62C619.68 300.91 619.68 279.21 619.68 276.5C619.68 272.75 616.64 269.72 612.89 269.72C600.01 269.72 554.9 269.72 548.46 269.72Z" id="bu7w40r9u"></path><path d="M608.56 283.28C608.63 283.28 608.78 283.29 609.03 283.34C609.61 283.47 609.98 283.68 610.42 284.51C610.94 285.45 611.2 286.68 611.2 288.26C611.2 290.63 610.66 292.74 609.55 294.71C608.35 296.84 607.48 296.84 607.06 296.84C606.99 296.84 606.83 296.83 606.59 296.78C606.01 296.65 605.64 296.44 605.22 295.65C604.68 294.67 604.42 293.39 604.42 291.83C604.42 289.46 604.95 287.37 606.05 285.45C607.28 283.28 608.18 283.28 608.56 283.28M601.63 282.93C600.1 285.61 599.33 288.58 599.33 291.83C599.33 294.26 599.8 296.34 600.75 298.08C601.81 300.07 603.37 301.26 605.46 301.74C606.02 301.86 606.55 301.93 607.06 301.93C609.92 301.93 612.22 300.35 613.99 297.19C615.52 294.48 616.29 291.51 616.29 288.26C616.29 285.8 615.81 283.75 614.87 282.04C613.81 280.05 612.25 278.86 610.15 278.38C609.59 278.26 609.06 278.19 608.56 278.19C608.56 278.19 608.56 278.19 608.56 278.19C605.14 279.24 602.83 280.82 601.63 282.93ZM588.21 283.28C588.28 283.28 588.43 283.29 588.67 283.34C589.23 283.47 589.63 283.69 590.07 284.51C590.6 285.45 590.85 286.68 590.85 288.26C590.85 290.63 590.31 292.74 589.2 294.71C588 296.84 587.13 296.84 586.71 296.84C586.64 296.84 586.48 296.83 586.24 296.78C585.66 296.65 585.29 296.44 584.87 295.65C584.34 294.67 584.07 293.39 584.07 291.83C584.07 289.46 584.6 287.37 585.7 285.45C586.94 283.28 587.83 283.28 588.21 283.28M581.28 282.93C579.75 285.61 578.98 288.58 578.98 291.83C578.98 294.26 579.45 296.34 580.4 298.08C581.46 300.07 583.02 301.26 585.12 301.74C585.68 301.86 586.21 301.93 586.71 301.93C589.57 301.93 591.87 300.35 593.64 297.19C595.17 294.48 595.94 291.51 595.94 288.26C595.94 285.8 595.47 283.75 594.52 282.04C593.46 280.05 591.87 278.86 589.8 278.38C589.24 278.26 588.71 278.19 588.21 278.19C588.21 278.19 588.21 278.19 588.21 278.19C584.79 279.24 582.48 280.82 581.28 282.93ZM569.45 304.46C565.72 300.26 563.44 294.74 562.09 290.32C560.15 294.42 557.53 299.67 554.88 304.08C554.36 304.96 553.36 305.42 552.35 305.29C551.34 305.15 550.51 304.42 550.25 303.44C546.49 289.66 545.15 279.79 545.09 279.38C544.91 277.99 545.88 276.71 547.27 276.52C548.68 276.34 549.95 277.31 550.13 278.7C550.15 278.78 551.1 285.78 553.58 295.99C557.34 288.86 560.5 281.52 560.54 281.43C560.99 280.38 562.09 279.75 563.22 279.91C564.35 280.06 565.24 280.95 565.39 282.08C565.41 282.17 566.31 288.57 569.2 294.72C570.42 282.57 574.07 276.34 574.26 276.03C574.98 274.83 576.55 274.44 577.75 275.16C578.95 275.88 579.34 277.44 578.62 278.65C578.58 278.72 573.89 286.86 573.89 302.78C573.89 303.83 573.24 304.78 572.25 305.15C571.96 305.26 571.65 305.32 571.35 305.32C570.64 305.32 569.94 305.02 569.45 304.46Z" id="a12NDXbsk"></path></defs><g><g><g><filter id="shadow4379939" x="516.46" y="227.21" width="133.43" height="127.48" filterUnits="userSpaceOnUse" primitiveUnits="userSpaceOnUse"><feFlood></feFlood><feComposite in2="SourceAlpha" operator="in"></feComposite><feGaussianBlur stdDeviation="1.41"></feGaussianBlur><feOffset dx="6" dy="5" result="afterOffset"></feOffset><feFlood flood-color="#000000" flood-opacity="0.5"></feFlood><feComposite in2="afterOffset" operator="in"></feComposite><feMorphology operator="dilate" radius="1"></feMorphology><feComposite in2="SourceAlpha" operator="out"></feComposite></filter><path d="M618.19 243.21C623.55 243.21 627.89 247.55 627.89 252.91C627.89 269.06 627.89 307.84 627.89 323.99C627.89 329.35 623.55 333.69 618.19 333.69C601.05 333.69 559.31 333.69 542.16 333.69C536.81 333.69 532.46 329.35 532.46 323.99C532.46 307.84 532.46 269.06 532.46 252.91C532.46 247.55 536.81 243.21 542.16 243.21C559.31 243.21 601.05 243.21 618.19 243.21Z" id="e13e0M38JN" fill="white" fill-opacity="1" filter="url(#shadow4379939)"></path></g><use xlink:href="#cImIREFwZ" opacity="1" fill="#ffffff" fill-opacity="1"></use></g><g><use xlink:href="#bu7w40r9u" opacity="1" fill="#a64a7b" fill-opacity="1"></use><g><use xlink:href="#bu7w40r9u" opacity="1" fill-opacity="0" stroke="#000000" stroke-width="1" stroke-opacity="0"></use></g></g><g><use xlink:href="#a12NDXbsk" opacity="1" fill="#ffffff" fill-opacity="1"></use><g><use xlink:href="#a12NDXbsk" opacity="1" fill-opacity="0" stroke="#000000" stroke-width="1" stroke-opacity="0"></use></g></g></g></svg>